<?xml version="1.0" encoding="UTF-8" standalone="no"?>
<!-- Created with Inkscape (http://www.inkscape.org/) -->

<svg
   width="300mm"
   height="300mm"
   viewBox="0 0 300 300"
   version="1.1"
   id="svg1"
   inkscape:version="1.3.2 (091e20e, 2023-11-25, custom)"
   sodipodi:docname="kinza.svg"
   xmlns:inkscape="http://www.inkscape.org/namespaces/inkscape"
   xmlns:sodipodi="http://sodipodi.sourceforge.net/DTD/sodipodi-0.dtd"
   xmlns:xlink="http://www.w3.org/1999/xlink"
   xmlns="http://www.w3.org/2000/svg"
   xmlns:svg="http://www.w3.org/2000/svg">
  <sodipodi:namedview
     id="namedview1"
     pagecolor="#505050"
     bordercolor="#eeeeee"
     borderopacity="1"
     inkscape:showpageshadow="0"
     inkscape:pageopacity="0"
     inkscape:pagecheckerboard="0"
     inkscape:deskcolor="#505050"
     inkscape:document-units="mm"
     showguides="true"
     inkscape:lockguides="false"
     inkscape:zoom="0.39555208"
     inkscape:cx="372.89653"
     inkscape:cy="471.4929"
     inkscape:window-width="1366"
     inkscape:window-height="705"
     inkscape:window-x="-8"
     inkscape:window-y="-8"
     inkscape:window-maximized="1"
     inkscape:current-layer="layer2" />
  <defs
     id="defs1">
    <inkscape:path-effect
       effect="bspline"
       id="path-effect70"
       is_visible="true"
       lpeversion="1.3"
       weight="33.333333"
       steps="2"
       helper_size="0"
       apply_no_weight="true"
       apply_with_weight="true"
       only_selected="false"
       uniform="false" />
    <inkscape:path-effect
       effect="bspline"
       id="path-effect69"
       is_visible="true"
       lpeversion="1.3"
       weight="33.333333"
       steps="2"
       helper_size="0"
       apply_no_weight="true"
       apply_with_weight="true"
       only_selected="false"
       uniform="false" />
    <inkscape:path-effect
       effect="bspline"
       id="path-effect68"
       is_visible="true"
       lpeversion="1.3"
       weight="33.333333"
       steps="2"
       helper_size="0"
       apply_no_weight="true"
       apply_with_weight="true"
       only_selected="false"
       uniform="false" />
    <inkscape:path-effect
       effect="bspline"
       id="path-effect67"
       is_visible="true"
       lpeversion="1.3"
       weight="33.333333"
       steps="2"
       helper_size="0"
       apply_no_weight="true"
       apply_with_weight="true"
       only_selected="false"
       uniform="false" />
    <inkscape:path-effect
       effect="bspline"
       id="path-effect66"
       is_visible="true"
       lpeversion="1.3"
       weight="33.333333"
       steps="2"
       helper_size="0"
       apply_no_weight="true"
       apply_with_weight="true"
       only_selected="false"
       uniform="false" />
    <inkscape:path-effect
       effect="bspline"
       id="path-effect65"
       is_visible="true"
       lpeversion="1.3"
       weight="33.333333"
       steps="2"
       helper_size="0"
       apply_no_weight="true"
       apply_with_weight="true"
       only_selected="false"
       uniform="false" />
    <inkscape:path-effect
       effect="bspline"
       id="path-effect64"
       is_visible="true"
       lpeversion="1.3"
       weight="33.333333"
       steps="2"
       helper_size="0"
       apply_no_weight="true"
       apply_with_weight="true"
       only_selected="false"
       uniform="false" />
    <inkscape:path-effect
       effect="bspline"
       id="path-effect63"
       is_visible="true"
       lpeversion="1.3"
       weight="33.333333"
       steps="2"
       helper_size="0"
       apply_no_weight="true"
       apply_with_weight="true"
       only_selected="false"
       uniform="false" />
    <inkscape:path-effect
       effect="bspline"
       id="path-effect62"
       is_visible="true"
       lpeversion="1.3"
       weight="33.333333"
       steps="2"
       helper_size="0"
       apply_no_weight="true"
       apply_with_weight="true"
       only_selected="false"
       uniform="false" />
    <inkscape:path-effect
       effect="bspline"
       id="path-effect61"
       is_visible="true"
       lpeversion="1.3"
       weight="33.333333"
       steps="2"
       helper_size="0"
       apply_no_weight="true"
       apply_with_weight="true"
       only_selected="false"
       uniform="false" />
    <inkscape:path-effect
       effect="bspline"
       id="path-effect60"
       is_visible="true"
       lpeversion="1.3"
       weight="33.333333"
       steps="2"
       helper_size="0"
       apply_no_weight="true"
       apply_with_weight="true"
       only_selected="false"
       uniform="false" />
    <inkscape:path-effect
       effect="bspline"
       id="path-effect59"
       is_visible="true"
       lpeversion="1.3"
       weight="33.333333"
       steps="2"
       helper_size="0"
       apply_no_weight="true"
       apply_with_weight="true"
       only_selected="false"
       uniform="false" />
    <inkscape:path-effect
       effect="bspline"
       id="path-effect58"
       is_visible="true"
       lpeversion="1.3"
       weight="33.333333"
       steps="2"
       helper_size="0"
       apply_no_weight="true"
       apply_with_weight="true"
       only_selected="false"
       uniform="false" />
    <inkscape:path-effect
       effect="bspline"
       id="path-effect57"
       is_visible="true"
       lpeversion="1.3"
       weight="33.333333"
       steps="2"
       helper_size="0"
       apply_no_weight="true"
       apply_with_weight="true"
       only_selected="false"
       uniform="false" />
    <inkscape:path-effect
       effect="bspline"
       id="path-effect56"
       is_visible="true"
       lpeversion="1.3"
       weight="33.333333"
       steps="2"
       helper_size="0"
       apply_no_weight="true"
       apply_with_weight="true"
       only_selected="false"
       uniform="false" />
    <inkscape:path-effect
       effect="bspline"
       id="path-effect55"
       is_visible="true"
       lpeversion="1.3"
       weight="33.333333"
       steps="2"
       helper_size="0"
       apply_no_weight="true"
       apply_with_weight="true"
       only_selected="false"
       uniform="false" />
    <inkscape:path-effect
       effect="bspline"
       id="path-effect54"
       is_visible="true"
       lpeversion="1.3"
       weight="33.333333"
       steps="2"
       helper_size="0"
       apply_no_weight="true"
       apply_with_weight="true"
       only_selected="false"
       uniform="false" />
    <inkscape:path-effect
       effect="bspline"
       id="path-effect53"
       is_visible="true"
       lpeversion="1.3"
       weight="33.333333"
       steps="2"
       helper_size="0"
       apply_no_weight="true"
       apply_with_weight="true"
       only_selected="false"
       uniform="false" />
    <inkscape:path-effect
       effect="bspline"
       id="path-effect52"
       is_visible="true"
       lpeversion="1.3"
       weight="33.333333"
       steps="2"
       helper_size="0"
       apply_no_weight="true"
       apply_with_weight="true"
       only_selected="false"
       uniform="false" />
    <inkscape:path-effect
       effect="bspline"
       id="path-effect51"
       is_visible="true"
       lpeversion="1.3"
       weight="33.333333"
       steps="2"
       helper_size="0"
       apply_no_weight="true"
       apply_with_weight="true"
       only_selected="false"
       uniform="false" />
    <inkscape:path-effect
       effect="bspline"
       id="path-effect50"
       is_visible="true"
       lpeversion="1.3"
       weight="33.333333"
       steps="2"
       helper_size="0"
       apply_no_weight="true"
       apply_with_weight="true"
       only_selected="false"
       uniform="false" />
    <inkscape:path-effect
       effect="bspline"
       id="path-effect49"
       is_visible="true"
       lpeversion="1.3"
       weight="33.333333"
       steps="2"
       helper_size="0"
       apply_no_weight="true"
       apply_with_weight="true"
       only_selected="false"
       uniform="false" />
    <inkscape:path-effect
       effect="bspline"
       id="path-effect48"
       is_visible="true"
       lpeversion="1.3"
       weight="33.333333"
       steps="2"
       helper_size="0"
       apply_no_weight="true"
       apply_with_weight="true"
       only_selected="false"
       uniform="false" />
    <inkscape:path-effect
       effect="bspline"
       id="path-effect47"
       is_visible="true"
       lpeversion="1.3"
       weight="33.333333"
       steps="2"
       helper_size="0"
       apply_no_weight="true"
       apply_with_weight="true"
       only_selected="false"
       uniform="false" />
    <inkscape:path-effect
       effect="bspline"
       id="path-effect46"
       is_visible="true"
       lpeversion="1.3"
       weight="33.333333"
       steps="2"
       helper_size="0"
       apply_no_weight="true"
       apply_with_weight="true"
       only_selected="false"
       uniform="false" />
    <inkscape:path-effect
       effect="bspline"
       id="path-effect45"
       is_visible="true"
       lpeversion="1.3"
       weight="33.333333"
       steps="2"
       helper_size="0"
       apply_no_weight="true"
       apply_with_weight="true"
       only_selected="false"
       uniform="false" />
    <inkscape:path-effect
       effect="bspline"
       id="path-effect44"
       is_visible="true"
       lpeversion="1.3"
       weight="33.333333"
       steps="2"
       helper_size="0"
       apply_no_weight="true"
       apply_with_weight="true"
       only_selected="false"
       uniform="false" />
    <inkscape:path-effect
       effect="bspline"
       id="path-effect43"
       is_visible="true"
       lpeversion="1.3"
       weight="33.333333"
       steps="2"
       helper_size="0"
       apply_no_weight="true"
       apply_with_weight="true"
       only_selected="false"
       uniform="false" />
    <inkscape:path-effect
       effect="bspline"
       id="path-effect42"
       is_visible="true"
       lpeversion="1.3"
       weight="33.333333"
       steps="2"
       helper_size="0"
       apply_no_weight="true"
       apply_with_weight="true"
       only_selected="false"
       uniform="false" />
    <inkscape:path-effect
       effect="bspline"
       id="path-effect41"
       is_visible="true"
       lpeversion="1.3"
       weight="33.333333"
       steps="2"
       helper_size="0"
       apply_no_weight="true"
       apply_with_weight="true"
       only_selected="false"
       uniform="false" />
    <inkscape:path-effect
       effect="bspline"
       id="path-effect40"
       is_visible="true"
       lpeversion="1.3"
       weight="33.333333"
       steps="2"
       helper_size="0"
       apply_no_weight="true"
       apply_with_weight="true"
       only_selected="false"
       uniform="false" />
    <inkscape:path-effect
       effect="bspline"
       id="path-effect39"
       is_visible="true"
       lpeversion="1.3"
       weight="33.333333"
       steps="2"
       helper_size="0"
       apply_no_weight="true"
       apply_with_weight="true"
       only_selected="false"
       uniform="false" />
    <inkscape:path-effect
       effect="bspline"
       id="path-effect38"
       is_visible="true"
       lpeversion="1.3"
       weight="33.333333"
       steps="2"
       helper_size="0"
       apply_no_weight="true"
       apply_with_weight="true"
       only_selected="false"
       uniform="false" />
    <inkscape:path-effect
       effect="bspline"
       id="path-effect37"
       is_visible="true"
       lpeversion="1.3"
       weight="33.333333"
       steps="2"
       helper_size="0"
       apply_no_weight="true"
       apply_with_weight="true"
       only_selected="false"
       uniform="false" />
    <inkscape:path-effect
       effect="bspline"
       id="path-effect36"
       is_visible="true"
       lpeversion="1.3"
       weight="33.333333"
       steps="2"
       helper_size="0"
       apply_no_weight="true"
       apply_with_weight="true"
       only_selected="false"
       uniform="false" />
    <inkscape:path-effect
       effect="bspline"
       id="path-effect35"
       is_visible="true"
       lpeversion="1.3"
       weight="33.333333"
       steps="2"
       helper_size="0"
       apply_no_weight="true"
       apply_with_weight="true"
       only_selected="false"
       uniform="false" />
    <inkscape:path-effect
       effect="bspline"
       id="path-effect34"
       is_visible="true"
       lpeversion="1.3"
       weight="33.333333"
       steps="2"
       helper_size="0"
       apply_no_weight="true"
       apply_with_weight="true"
       only_selected="false"
       uniform="false" />
    <inkscape:path-effect
       effect="spiro"
       id="path-effect28"
       is_visible="true"
       lpeversion="1" />
    <inkscape:path-effect
       effect="spiro"
       id="path-effect27"
       is_visible="true"
       lpeversion="1" />
    <inkscape:path-effect
       effect="spiro"
       id="path-effect26"
       is_visible="true"
       lpeversion="1" />
    <inkscape:path-effect
       effect="powerstroke"
       id="path-effect24"
       is_visible="true"
       lpeversion="1.3"
       scale_width="1"
       interpolator_type="CentripetalCatmullRom"
       interpolator_beta="0.75"
       start_linecap_type="round"
       end_linecap_type="round"
       offset_points="35.476508,8.7524558"
       linejoin_type="spiro"
       miter_limit="4"
       not_jump="true"
       sort_points="true"
       message="&lt;b&gt;Ctrl + click&lt;/b&gt; on existing node and move it" />
    <inkscape:path-effect
       effect="simplify"
       id="path-effect23"
       is_visible="true"
       lpeversion="1.3"
       threshold="0.012"
       steps="1"
       smooth_angles="0"
       helper_size="0"
       simplify_individual_paths="false"
       simplify_just_coalesce="false"
       step="1" />
    <inkscape:path-effect
       effect="powerstroke"
       id="path-effect22"
       is_visible="true"
       lpeversion="1.3"
       scale_width="1"
       interpolator_type="CentripetalCatmullRom"
       interpolator_beta="0.75"
       start_linecap_type="round"
       end_linecap_type="round"
       offset_points="13.844029,8.7524558"
       linejoin_type="spiro"
       miter_limit="4"
       not_jump="true"
       sort_points="true"
       message="&lt;b&gt;Ctrl + click&lt;/b&gt; on existing node and move it" />
    <inkscape:path-effect
       effect="simplify"
       id="path-effect21"
       is_visible="true"
       lpeversion="1.3"
       threshold="0.012"
       steps="1"
       smooth_angles="0"
       helper_size="0"
       simplify_individual_paths="false"
       simplify_just_coalesce="false"
       step="1" />
    <linearGradient
       id="linearGradient19"
       inkscape:collect="always">
      <stop
         style="stop-color:#c1ff6a;stop-opacity:1;"
         offset="0"
         id="stop20" />
      <stop
         style="stop-color:#1dbf00;stop-opacity:1;"
         offset="0.74324322"
         id="stop21" />
    </linearGradient>
    <radialGradient
       inkscape:collect="always"
       xlink:href="#linearGradient19"
       id="radialGradient21"
       cx="146.59799"
       cy="150.03494"
       fx="146.59799"
       fy="150.03494"
       r="151.77779"
       gradientTransform="matrix(1,0,0,0.97608105,0,3.588679)"
       gradientUnits="userSpaceOnUse" />
  </defs>
  <g
     inkscape:groupmode="layer"
     id="layer2"
     inkscape:label="Layer 2"
     style="display:inline;stroke-width:1.01163"
     inkscape:transform-center-x="13.704286"
     inkscape:transform-center-y="2.836749"
     transform="matrix(0.96827885,0.03739636,-0.03593098,1.0077682,14.199655,-4.998573)">
    <path
       style="fill:url(#radialGradient21);fill-opacity:1;stroke-width:0.267659"
       d="M 297.11185,3.1918268 215.79387,80.9976 c 3.28662,36.2354 49.4726,34.10474 74.62149,59.40901 -7.82966,54.97773 -32.39858,-66.401342 7.96042,65.39677 -8.08478,1.49187 -16.16957,-3.26808 -24.25435,-11.08644 -10.37212,-19.30808 -27.29346,-35.34156 -46.96487,-50 12.93695,31.32184 43.09635,63.81067 46.96487,93.96552 -16.57601,5.06475 -5.14907,45.57633 -27.75346,53.16971 -93.62448,-12.96319 -29.00872,-85.01432 -69.00958,-27.58621 9.95657,-37.70774 18.44236,-75.58563 17.92775,-116.28514 -3.95794,49.79334 -27.43698,90.91063 -44.13923,135.03983 -49.09939,39.86111 -10.19379,-10.35944 -27.14209,-20.2039 -19.35071,-11.23991 71.11092,-127.93468 -38.373893,25.8485 -15.777236,22.16082 -36.487168,-8.49394 -65.591191,6.5788 C 21.617137,248.51596 2.9119511,249.76574 11.255437,242.78112 123.48614,148.82901 20.280145,230.77043 -2.3339883,202.80686 -23.642346,197.51823 81.084662,163.27163 100.0376,114.05063 77.872531,141.89385 60.80732,142.53783 43.130993,146.44109 4.4888278,99.727202 87.179077,135.32137 3.8338659,127.47556 L 12.293623,69.690592 C 96.139268,70.578243 38.742579,117.85269 42.172527,38.682463 L 90.095852,50.751429 24.92013,5.061775 C 144.13972,14.697513 20.007179,16.713931 99.014751,1.892071 149.82852,1.1488742 194.25797,91.686785 211.31915,74.557443 L 296.72479,2.2485098"
       id="path1"
       sodipodi:nodetypes="cccccccccccsscsccccccccccc" />
    <g
       inkscape:groupmode="layer"
       id="layer3"
       inkscape:label="Layer 1"
       transform="matrix(0.98435913,0,0,0.99360707,4.6477536,1.903641)"
       style="stroke-width:1.0229">
      <path
         style="color:#000000;fill:#c3ff27;stroke-width:1.0229;stroke-linecap:round;stroke-linejoin:round;-inkscape-stroke:none;paint-order:fill markers stroke"
         d="M 295.91016,3.1328125 C 261.9399,33.389726 227.97522,63.642677 211.55469,79.546875 c -8.21027,7.952098 -12.11655,12.282471 -12.6211,16.052734 -0.25227,1.885132 0.43099,3.567967 1.78711,5.259771 1.35612,1.69179 3.38543,3.44946 5.97461,5.66015 10.35673,8.84278 29.88354,25.00295 42.48242,36.64063 12.59889,11.63768 18.27018,18.74524 23.21094,25.60742 4.94076,6.86218 9.12981,13.45534 12.98242,19.40625 3.85262,5.95091 7.36013,11.248 10.86719,16.54297 a 0.5,0.5 0 0 0 0.69336,0.14062 0.5,0.5 0 0 0 0.14063,-0.69336 c -3.50707,-5.29496 -7.01211,-10.58754 -10.86133,-16.5332 -3.84922,-5.94567 -8.05013,-12.55616 -13.01172,-19.44727 -4.96159,-6.89111 -10.70551,-14.08377 -23.34375,-25.75781 -12.63824,-11.67403 -32.16958,-27.83568 -42.51172,-36.66601 -2.58554,-2.20759 -4.58243,-3.95186 -5.84375,-5.52539 -1.26132,-1.573543 -1.78609,-2.918705 -1.57422,-4.501958 0.42375,-3.166506 4.13388,-7.533997 12.32422,-15.466797 16.38068,-15.8656 50.35591,-46.127852 84.32617,-76.3847656 a 0.5,0.5 0 0 0 0.041,-0.7070313 0.5,0.5 0 0 0 -0.70703,-0.041016 z"
         id="path41" />
      <path
         style="color:#000000;fill:#c3ff27;stroke-width:1.0229;stroke-linecap:round;stroke-linejoin:round;-inkscape-stroke:none;paint-order:fill markers stroke"
         d="m 201.00195,91.115234 a 0.5,0.5 0 0 0 -0.29883,0.238282 c -0.68765,1.237782 -1.39107,2.503043 -2.25976,4.58789 -0.86869,2.084847 -1.9374,5.138944 -0.99414,10.728514 0.94325,5.58957 3.83896,13.69892 6.89844,22.46485 3.05948,8.76592 6.28605,18.17494 8.92773,28.08984 2.64168,9.9149 4.70057,20.35033 6.31445,30.78906 1.61388,10.43873 2.78277,20.88936 4.33203,31.08008 1.54927,10.19072 3.47818,20.10894 5.82032,29.61523 2.34213,9.5063 5.09728,18.59893 7.89453,25.71289 2.79724,7.11397 5.63177,12.22969 8.45117,17.31836 a 0.5,0.5 0 0 0 0.67969,0.19532 0.5,0.5 0 0 0 0.19531,-0.67969 c -2.8194,-5.08867 -5.62366,-10.1493 -8.39648,-17.20117 -2.77283,-7.05187 -5.51953,-16.11271 -7.85352,-25.58594 -2.33399,-9.47323 -4.25555,-19.36125 -5.80078,-29.52539 -1.54523,-10.16414 -2.71585,-20.61579 -4.33399,-31.08203 -1.61813,-10.46625 -3.68261,-20.93593 -6.33593,-30.89453 -2.65333,-9.95861 -5.89044,-19.3926 -8.95117,-28.16211 -3.06074,-8.76952 -5.942,-16.88768 -6.85547,-22.30078 -0.91348,-5.41311 0.0812,-8.136586 0.93164,-10.177738 0.85048,-2.041151 1.52132,-3.250499 2.20898,-4.488281 a 0.5,0.5 0 0 0 -0.19336,-0.679688 0.5,0.5 0 0 0 -0.38086,-0.04297 z"
         id="path42" />
      <path
         style="color:#000000;fill:#c3ff27;stroke-width:1.0229;stroke-linecap:round;stroke-linejoin:round;-inkscape-stroke:none;paint-order:fill markers stroke"
         d="m 203.79883,87.794922 a 0.5,0.5 0 0 0 -0.34766,0.164062 c -8.93954,9.833498 -17.90376,19.681686 -23.24414,29.599606 -5.34038,9.91792 -7.00107,19.83895 -8.17187,32.58008 -1.1708,12.74113 -1.85881,28.32842 -4.94336,43.7168 -3.08456,15.38837 -8.57507,30.62741 -14.10547,44.29883 -5.53041,13.67141 -11.0965,25.76698 -14.98633,34.82031 -3.88983,9.05332 -6.0986,15.0522 -7.66406,18.52344 -1.56547,3.47124 -2.45329,4.40405 -3.41602,5.43554 a 0.5,0.5 0 0 0 0.0234,0.70703 0.5,0.5 0 0 0 0.70703,-0.0254 c 0.96273,-1.03149 1.99988,-2.16219 3.59766,-5.70507 1.59777,-3.54289 3.79113,-9.50885 7.67187,-18.54102 3.88074,-9.03217 9.45315,-21.14226 14.99414,-34.83984 5.54099,-13.69758 11.05373,-28.98882 14.15821,-44.47657 3.10447,-15.48774 3.79173,-31.11977 4.95898,-43.82226 1.16725,-12.70249 2.80707,-22.44799 8.05664,-32.19727 5.24957,-9.74927 14.16397,-19.568843 23.10352,-29.402341 a 0.5,0.5 0 0 0 -0.0332,-0.705078 0.5,0.5 0 0 0 -0.35937,-0.130859 z"
         id="path43" />
      <path
         style="color:#000000;fill:#c3ff27;stroke-width:1.0229;stroke-linecap:round;stroke-linejoin:round;-inkscape-stroke:none;paint-order:fill markers stroke"
         d="m 206.00977,86.064453 a 0.5,0.5 0 0 0 -0.70508,0.04102 L 20.255859,294.25977 a 0.5,0.5 0 0 0 0.04102,0.70703 0.5,0.5 0 0 0 0.707031,-0.041 L 206.05273,86.771484 a 0.5,0.5 0 0 0 -0.043,-0.707031 z"
         id="path44" />
      <path
         style="color:#000000;fill:#c3ff27;stroke-width:1.0229;stroke-linecap:round;stroke-linejoin:round;-inkscape-stroke:none;paint-order:fill markers stroke"
         d="m 187.44531,107.52148 a 0.5,0.5 0 0 0 -0.70508,0.0371 c -10.38362,11.55265 -20.77127,23.10107 -28.65429,29.55078 -7.88302,6.44972 -13.24823,7.8449 -20.59961,9.5625 -7.35139,1.71761 -16.5963,3.71846 -27.77149,7.85743 -11.175178,4.13897 -24.248793,10.40239 -35.630856,15.90429 -11.382062,5.50191 -21.073606,10.24429 -32.101562,15.19141 -11.027957,4.94712 -23.405808,10.10124 -31.398438,12.49219 -7.99263,2.39094 -11.56985366,2.04304 -15.2832027,1.69922 a 0.5,0.5 0 0 0 -0.5429688,0.45312 0.5,0.5 0 0 0 0.4511719,0.54297 c 3.7133491,0.34383 7.5634888,0.68437 15.6621096,-1.73828 8.098621,-2.42265 20.475395,-7.58186 31.521484,-12.53711 11.046089,-4.95525 20.747369,-9.70242 32.126953,-15.20313 11.379585,-5.5007 24.435839,-11.75414 35.541019,-15.86718 11.10517,-4.11305 20.28963,-6.0996 27.65429,-7.82032 7.36467,-1.72071 13.00193,-3.21467 21.00391,-9.76171 8.00198,-6.54705 18.382,-18.10361 28.76562,-29.65625 a 0.5,0.5 0 0 0 -0.0391,-0.70704 z"
         id="path45" />
      <path
         style="color:#000000;fill:#c3ff27;stroke-width:1.0229;stroke-linecap:round;stroke-linejoin:round;-inkscape-stroke:none;paint-order:fill markers stroke"
         d="m 120.5293,80.787109 c -2.7224,-0.116542 -5.56236,0.11176 -8.1543,0.605469 -5.18388,0.987417 -9.3228,3.0601 -14.333984,5.638672 -5.011188,2.578572 -10.925126,5.680724 -17.158204,8 -6.233078,2.319276 -12.821237,3.870616 -18.791015,5.08398 -5.969779,1.21337 -11.37696,2.09812 -18.625,5.23243 -7.248039,3.1343 -16.29594,8.49026 -23.097656,12.37695 -6.801717,3.88669 -11.3614411,6.31148 -13.5605473,7.5332 -1.0995529,0.61087 -1.5909324,0.90264 -1.8535156,1.10157 -0.065646,0.0497 -0.1181203,0.0903 -0.1835937,0.16992 -0.032737,0.0398 -0.072776,0.0897 -0.1054688,0.1914 -0.032693,0.10166 -0.034725,0.28848 0.048828,0.42774 0.1671065,0.27852 0.3398267,0.2476 0.4082032,0.25586 0.068376,0.008 0.1045939,0.006 0.1289062,0.006 a 0.5,0.5 0 0 0 0.3457031,-0.34571 c -0.020329,0.0439 -0.04168,0.0862 -0.052734,0.0996 -0.030334,0.0369 -0.020971,0.0184 0.013672,-0.008 0.1385723,-0.10498 0.6458176,-0.41868 1.734375,-1.02344 2.1771148,-1.20951 6.7589729,-3.64771 13.5722649,-7.54101 6.813293,-3.89331 15.852992,-9.23641 22.998047,-12.32617 7.145055,-3.08977 12.435729,-3.95399 18.427735,-5.17188 5.992005,-1.217886 12.629178,-2.778226 18.941406,-5.126953 C 87.544651,93.61807 93.494379,90.49563 98.5,87.919922 c 5.00562,-2.575708 9.03511,-4.587311 14.0625,-5.544922 5.02739,-0.957611 11.10432,-0.839319 15.03125,0.796875 3.92692,1.636192 5.94187,4.884389 10.23047,8.433594 4.2886,3.549205 10.74865,7.264149 19.00976,10.343751 8.26112,3.0796 18.30796,5.54974 25.64063,4.30273 7.33268,-1.24701 11.71907,-6.24104 15.99805,-11.103513 a 0.5,0.5 0 0 0 -0.0449,-0.705078 0.5,0.5 0 0 0 -0.70507,0.04492 c -4.27898,4.862472 -8.45283,9.593171 -15.41602,10.777351 -6.96319,1.18417 -16.94888,-1.20672 -25.12305,-4.25391 -8.17416,-3.047191 -14.55052,-6.724919 -18.72265,-10.177738 -4.17214,-3.452819 -6.24027,-6.816449 -10.48242,-8.583984 -2.12108,-0.883767 -4.72682,-1.346349 -7.44922,-1.462891 z"
         id="path46" />
      <path
         style="color:#000000;fill:#c3ff27;stroke-width:1.0229;stroke-linecap:round;stroke-linejoin:round;-inkscape-stroke:none;paint-order:fill markers stroke"
         d="m 103.03906,84.693359 a 0.5,0.5 0 0 0 -0.36523,0.107422 c -4.570724,3.695477 -9.16413,7.408017 -13.857424,12.296875 -4.693293,4.888854 -9.451631,10.905894 -14.755859,15.679684 -5.304229,4.77379 -11.2175,8.36212 -15.826172,11.99024 -4.608672,3.62811 -7.852919,7.26412 -10.212891,10.60742 -2.359971,3.3433 -3.832695,6.38349 -4.529297,8.125 -0.3483,0.87075 -0.508583,1.42512 -0.566406,1.85156 -0.05782,0.42644 0.01192,0.74105 0.06055,0.93555 a 0.5,0.5 0 0 0 0.605469,0.36328 0.5,0.5 0 0 0 0.363281,-0.60547 c -0.04863,-0.1945 -0.07654,-0.26782 -0.03711,-0.55859 0.03943,-0.29078 0.171461,-0.78412 0.503906,-1.61524 0.664891,-1.66223 2.107984,-4.6502 4.416016,-7.91992 2.308031,-3.26972 5.482786,-6.83002 10.015625,-10.39844 4.532838,-3.56841 10.483627,-7.17727 15.876953,-12.03125 5.393327,-4.85397 10.165849,-10.89426 14.808593,-15.730464 4.642744,-4.836201 9.190997,-8.515461 13.761716,-12.210938 a 0.5,0.5 0 0 0 0.0762,-0.703125 0.5,0.5 0 0 0 -0.33789,-0.183594 z"
         id="path47" />
      <path
         style="color:#000000;fill:#c3ff27;stroke-width:1.0229;stroke-linecap:round;stroke-linejoin:round;-inkscape-stroke:none;paint-order:fill markers stroke"
         d="m 12.878906,69.8125 a 0.5,0.5 0 0 0 -0.365234,0.117187 0.5,0.5 0 0 0 -0.05859,0.705079 c 1.069744,1.264242 2.146139,2.537119 4.095703,4.68164 1.949565,2.144522 4.807013,5.196558 9.560547,8.626953 4.753535,3.430396 11.401803,7.247098 18.384766,9.3125 6.982964,2.065403 14.252741,2.355963 22.607422,1.525391 8.354682,-0.830573 17.799228,-2.77962 27.232421,-4.724609 A 0.5,0.5 0 0 0 94.724613,89.466797 0.5,0.5 0 0 0 94.13477,89.076172 C 84.701572,91.021161 75.279017,92.962494 67.003906,93.785156 58.728794,94.607818 51.605883,94.316024 44.779297,92.296875 37.95271,90.277725 31.375025,86.509935 26.695312,83.132812 22.015599,79.75569 19.231449,76.777056 17.291016,74.642578 15.350582,72.508101 14.288493,71.252523 13.21875,69.988281 A 0.5,0.5 0 0 0 12.878906,69.8125 Z"
         id="path48" />
      <path
         style="color:#000000;fill:#c3ff27;stroke-width:1.0229;stroke-linecap:round;stroke-linejoin:round;-inkscape-stroke:none;paint-order:fill markers stroke"
         d="m 42.595703,38.886719 a 0.5,0.5 0 0 0 -0.353516,0.146484 0.5,0.5 0 0 0 0,0.707031 c 0.388999,0.388997 0.742993,0.738461 2.78125,3.310547 2.038258,2.572086 5.757026,7.370684 10.855469,11.88086 5.098444,4.510176 11.539485,8.704343 17.972656,12.457031 6.433172,3.752688 12.868272,7.067986 18.875,9.607422 6.00673,2.539436 11.568108,4.29443 17.111328,6.044922 a 0.5,0.5 0 0 0 0.62891,-0.326172 0.5,0.5 0 0 0 -0.32617,-0.626953 C 104.5974,80.337399 99.072267,78.591819 93.117187,76.074219 87.162107,73.556618 80.759347,70.259037 74.355469,66.523437 67.951591,62.787837 61.556584,58.618505 56.541016,54.181641 51.525446,49.744776 47.852866,45.011828 45.806641,42.429687 43.760415,39.847547 43.338217,39.4222 42.949219,39.033203 a 0.5,0.5 0 0 0 -0.353516,-0.146484 z"
         id="path49" />
      <path
         style="color:#000000;fill:#c3ff27;stroke-width:1.0229;stroke-linecap:round;stroke-linejoin:round;-inkscape-stroke:none;paint-order:fill markers stroke"
         d="m 25.855469,4.7851562 a 0.5,0.5 0 0 0 -0.648438,0.2851563 0.5,0.5 0 0 0 0.285156,0.6464844 c 5.251469,2.0422378 10.502039,4.0858807 14.681641,5.7382811 4.179603,1.652401 7.317245,2.925846 12.974609,4.632813 5.657365,1.706967 13.825108,3.844565 24.13086,6.664062 10.305751,2.819498 22.751793,6.31973 34.033203,9.480469 11.28141,3.160739 21.37615,5.980554 29.23828,9.791015 7.86213,3.810462 13.54415,8.626547 18.08399,13.552735 4.53983,4.926187 7.93565,9.969394 11.98632,15.09375 4.05068,5.124356 8.72716,10.292502 12.65625,13.730469 3.9291,3.437967 7.11043,5.132009 9.98243,6.171875 2.87199,1.039866 5.58025,1.470237 8.1289,0.169921 2.54866,-1.300317 4.76783,-4.151591 7.95899,-7.439453 3.19115,-3.287861 7.36905,-7.078367 11.55078,-10.871093 a 0.5,0.5 0 0 0 0.0332,-0.705079 0.5,0.5 0 0 0 -0.70508,-0.03516 c -4.18172,3.792727 -8.36835,7.588911 -11.5957,10.914063 -3.22735,3.325151 -5.48065,6.115184 -7.69727,7.246093 -2.21662,1.130912 -4.56544,0.781705 -7.33398,-0.220703 -2.76854,-1.002408 -5.81311,-2.614781 -9.66406,-5.984375 -3.85096,-3.369594 -8.50821,-8.508774 -12.5293,-13.595703 -4.02109,-5.086929 -7.43343,-10.158992 -12.03516,-15.152344 -4.60172,-4.99335 -10.39504,-9.901139 -18.38476,-13.773437 -7.98972,-3.872297 -18.1236,-6.694928 -29.4043,-9.855469 C 100.30133,28.10899 87.854257,24.608122 77.542969,21.787109 67.23168,18.966097 59.061129,16.825694 53.4375,15.128906 47.813871,13.432118 44.726921,12.177558 40.542969,10.523438 36.359017,8.8693174 31.106937,6.8273941 25.855469,4.7851562 Z"
         id="path50" />
      <path
         style="color:#000000;fill:#c3ff27;stroke-width:1.0229;stroke-linecap:round;stroke-linejoin:round;-inkscape-stroke:none;paint-order:fill markers stroke"
         d="m 98.744141,1.859375 a 0.5,0.5 0 0 0 -0.316407,0.6328125 c 0.04863,0.1458738 0.121248,0.3503677 0.308594,0.6992188 0.187346,0.348851 0.496164,0.8657683 1.058594,1.7460937 1.124858,1.7606511 3.296118,5.017049 7.083988,8.509766 3.78786,3.492717 9.13308,7.183691 15.14648,12.033203 6.0134,4.849511 12.71948,10.872882 19.42969,16.902343 a 0.5,0.5 0 0 0 0.70703,-0.03711 0.5,0.5 0 0 0 -0.0391,-0.705078 C 135.41284,35.611163 128.69993,29.576674 122.6543,24.701172 116.60867,19.82567 111.25703,16.124947 107.55664,12.712891 103.85625,9.3008332 101.7486,6.1387715 100.63672,4.3984375 100.08078,3.5282704 99.78237,3.0243771 99.617187,2.7167969 99.452005,2.4092166 99.425578,2.321655 99.376953,2.1757813 A 0.5,0.5 0 0 0 98.744141,1.859375 Z"
         id="path51" />
      <path
         style="color:#000000;fill:#c3ff27;stroke-width:1.0229;stroke-linecap:round;stroke-linejoin:round;-inkscape-stroke:none;paint-order:fill markers stroke"
         d="m 221.39648,117.80664 a 0.5,0.5 0 0 0 -0.33984,0.17383 0.5,0.5 0 0 0 0.0566,0.70508 c 5.83496,4.95971 11.66633,9.92105 15.92383,12.72656 4.2575,2.8055 6.9414,3.42382 11.60547,4.58984 4.66407,1.16602 11.42066,2.9174 16.18164,4.48828 4.76098,1.57089 7.58803,2.99038 10.91015,3.58985 3.32213,0.59947 7.00784,0.35183 9.60547,-0.22266 2.59764,-0.57448 4.09574,-1.49779 5.50586,-2.37305 a 0.5,0.5 0 0 0 0.16016,-0.6875 0.5,0.5 0 0 0 -0.6875,-0.1621 c -1.41013,0.87525 -2.734,1.70414 -5.19336,2.24804 -2.45936,0.54391 -6.06784,0.78237 -9.21289,0.21485 -3.14505,-0.56752 -5.95724,-1.9669 -10.77539,-3.55664 -4.81815,-1.58975 -11.57996,-3.34177 -16.25195,-4.50977 -4.672,-1.168 -7.14225,-1.7154 -11.29688,-4.45313 -4.15463,-2.73772 -9.99121,-7.69457 -15.82617,-12.65429 a 0.5,0.5 0 0 0 -0.36524,-0.11719 z"
         id="path52" />
      <path
         style="color:#000000;fill:#c3ff27;stroke-width:1.0229;stroke-linecap:round;stroke-linejoin:round;-inkscape-stroke:none;paint-order:fill markers stroke"
         d="m 208.82031,140.94336 a 0.5,0.5 0 0 0 -0.31445,0.63086 c 0.55012,1.65038 1.08235,3.25071 1.35156,5.53906 0.26922,2.28835 0.27153,5.29642 0.11719,9.25781 -0.15434,3.9614 -0.46247,8.87564 -0.61719,11.33399 -0.15056,2.39218 -0.95883,7.44167 -1.6914,13.79687 -0.73298,6.35875 -1.14581,12.50287 -2.22266,18.58789 -1.07685,6.08503 -2.8178,12.12897 -5.63867,18.57422 -2.82088,6.44526 -6.73199,13.30925 -9.73828,18.46289 -3.0063,5.15365 -5.10266,8.59251 -6.74414,11.56446 -1.64148,2.97194 -2.82117,5.46877 -3.72461,7.79687 -0.90344,2.3281 -1.52759,4.47568 -2.14649,6.60742 a 0.5,0.5 0 0 0 0.3418,0.61914 0.5,0.5 0 0 0 0.61914,-0.33984 c 0.61889,-2.13174 1.2327,-4.24614 2.11719,-6.52539 0.88448,-2.27925 2.04305,-4.73382 3.66797,-7.67578 1.62491,-2.94196 3.72167,-6.38169 6.73242,-11.54297 3.01075,-5.16128 6.93864,-12.04919 9.79101,-18.56641 2.85238,-6.51722 4.61773,-12.64539 5.70703,-18.80078 1.08931,-6.15539 1.50297,-12.31832 2.23243,-18.64648 0.72986,-6.3317 1.53642,-11.3251 1.69531,-13.84961 0.15472,-2.45835 0.46403,-7.37629 0.61914,-11.35742 0.15511,-3.98114 0.15786,-7.02434 -0.12305,-9.41211 -0.28091,-2.38778 -0.84831,-4.08986 -1.39844,-5.74024 a 0.5,0.5 0 0 0 -0.63281,-0.31445 z"
         id="path53" />
      <path
         style="color:#000000;fill:#c3ff27;stroke-width:1.0229;stroke-linecap:round;stroke-linejoin:round;-inkscape-stroke:none;paint-order:fill markers stroke"
         d="m 216.45898,167.41797 a 0.5,0.5 0 0 0 -0.3789,0.0508 0.5,0.5 0 0 0 -0.17969,0.68359 c 1.36149,2.33399 2.72216,4.66993 4.40039,7.51563 1.67824,2.8457 3.66932,6.19522 5.95117,10.27344 2.28186,4.07821 4.86791,8.91048 8.03125,13.27539 3.16335,4.36491 6.87277,8.219 10.3418,12.07617 3.46903,3.85717 6.72073,7.74348 8.56445,10.44922 1.84373,2.70573 2.34814,4.35112 4.44532,6.62304 2.09717,2.27193 5.70141,5.09084 8.48437,6.88868 2.78296,1.79783 4.73473,2.5503 5.83203,2.96484 1.09731,0.41454 1.40551,0.51603 1.69727,0.61328 a 0.5,0.5 0 0 0 0.63281,-0.31445 0.5,0.5 0 0 0 -0.31641,-0.63281 c -0.29175,-0.0973 -0.56932,-0.18947 -1.66015,-0.60157 -1.09084,-0.41209 -2.93091,-1.11736 -5.64258,-2.86914 -2.71167,-1.75178 -6.30364,-4.57358 -8.29102,-6.72656 -1.98738,-2.15298 -2.45508,-3.71893 -4.35547,-6.50781 -1.90038,-2.78889 -5.16406,-6.68046 -8.64843,-10.55469 -3.48437,-3.87423 -7.16608,-7.70378 -10.27539,-11.99414 -3.10932,-4.29036 -5.67788,-9.0869 -7.9668,-13.17774 -2.28892,-4.09083 -4.28598,-7.4495 -5.96289,-10.29296 -1.67691,-2.84346 -3.03695,-5.17774 -4.39844,-7.51172 a 0.5,0.5 0 0 0 -0.30469,-0.23047 z"
         id="path54" />
      <path
         style="color:#000000;fill:#c3ff27;stroke-width:1.0229;stroke-linecap:round;stroke-linejoin:round;-inkscape-stroke:none;paint-order:fill markers stroke"
         d="m 167.45117,196.2832 a 0.5,0.5 0 0 0 -0.70703,0.004 c -2.3583,2.38261 -4.73212,4.78021 -8.20703,8.87695 -3.47491,4.09675 -8.05701,9.89651 -11.75977,15.70117 -3.70276,5.80467 -6.50819,11.58554 -9.14648,17.05664 -2.63829,5.47111 -5.12228,10.64372 -7.35938,13.78516 -2.23709,3.14144 -4.22339,4.30978 -5.71875,5.19727 -1.49536,0.88749 -2.39211,1.42087 -2.82617,1.6875 -0.21704,0.13331 -0.29875,0.18076 -0.39453,0.25781 -0.0239,0.0193 -0.0475,0.0223 -0.11523,0.12109 -0.0169,0.0247 -0.0584,0.11265 -0.0586,0.11328 -1.1e-4,3.2e-4 -0.0253,0.10325 -0.0254,0.10352 -4e-5,2.7e-4 0.002,0.15016 0.002,0.15039 3e-5,2.3e-4 0.0604,0.16974 0.0605,0.16992 1.1e-4,1.9e-4 0.1092,0.13267 0.10938,0.13281 3.5e-4,3e-4 0.19862,0.10337 0.19922,0.10352 5.9e-4,1.5e-4 0.0851,0.0147 0.11132,0.0156 0.0263,9.3e-4 0.0433,-7.4e-4 0.0586,-0.002 0.0305,-0.002 0.049,-0.005 0.0625,-0.008 0.027,-0.005 0.0389,-0.008 0.0449,-0.01 a 0.5,0.5 0 0 0 0.24023,-0.15234 c 0.0238,-0.0153 0.0652,-0.0442 0.22852,-0.14453 0.41691,-0.25609 1.31742,-0.79236 2.8125,-1.67969 1.49508,-0.88732 3.68977,-2.19951 6.02344,-5.47656 2.33367,-3.27705 4.80972,-8.46013 7.44726,-13.92969 2.63755,-5.46956 5.42395,-11.21127 9.08789,-16.95508 3.66394,-5.7438 8.22354,-11.51751 11.67774,-15.58984 3.4542,-4.07232 5.79795,-6.43966 8.15625,-8.82227 a 0.5,0.5 0 0 0 -0.004,-0.70703 z m -45.80078,62.47657 c 0.0246,8.7e-4 0.10606,0.0158 0.10547,0.0156 -2.2e-4,-6e-5 0.0389,0.0198 0.0723,0.0371 a 0.5,0.5 0 0 0 -0.29102,-0.043 c -0.006,0.002 -0.007,10e-4 0.01,-0.002 0.008,-0.002 0.0223,-0.004 0.0488,-0.006 0.0133,-10e-4 0.0301,-0.003 0.0547,-0.002 z m 0.32227,0.14257 c 0.0263,0.0317 0.0899,0.10758 0.0898,0.10743 -1e-5,-3e-5 0.006,0.0178 0.008,0.0234 a 0.5,0.5 0 0 0 -0.0977,-0.13086 z"
         id="path55" />
      <path
         style="color:#000000;fill:#c3ff27;stroke-width:1.0229;stroke-linecap:round;stroke-linejoin:round;-inkscape-stroke:none;paint-order:fill markers stroke"
         d="m 107.58984,196.23047 a 0.5,0.5 0 0 0 -0.29882,0.23828 c -1.87206,3.37942 -3.73876,6.74336 -5.71485,9.41406 -1.976089,2.67071 -4.117446,4.71785 -6.285154,7.67383 -2.167709,2.95598 -4.31937,6.77116 -6.177735,10.73242 -1.858365,3.96126 -3.422591,8.0689 -4.597656,12.18164 -1.175065,4.11274 -1.955849,8.21066 -2.927734,13.02149 -0.971885,4.81083 -2.135612,10.33821 -3.728516,15.26172 -1.592904,4.9235 -3.63283,9.2915 -4.912109,13.32617 -1.27928,4.03466 -1.772782,7.67845 -1.822266,10.54883 -0.04948,2.87037 0.348147,4.96177 0.644531,6.24609 0.296384,1.28432 0.508627,1.8243 0.703125,2.31055 a 0.5,0.5 0 0 0 0.650391,0.27929 0.5,0.5 0 0 0 0.279297,-0.65039 c -0.194499,-0.48625 -0.371083,-0.91988 -0.658203,-2.16406 -0.28712,-1.24418 -0.666897,-3.23572 -0.619141,-6.00586 0.04776,-2.77014 0.526171,-6.32185 1.775391,-10.26172 1.249219,-3.93986 3.29379,-8.32429 4.910156,-13.32031 1.616366,-4.99602 2.784685,-10.55607 3.757812,-15.37305 0.973128,-4.81698 1.749264,-8.88706 2.908203,-12.94336 1.15894,-4.0563 2.705826,-8.11718 4.542969,-12.0332 1.837143,-3.91602 3.966816,-7.68734 6.078125,-10.56641 2.111309,-2.87906 4.247714,-4.91698 6.283204,-7.66796 2.03549,-2.75099 3.9131,-6.14597 5.78516,-9.5254 a 0.5,0.5 0 0 0 -0.19532,-0.67968 0.5,0.5 0 0 0 -0.38086,-0.043 z"
         id="path56" />
      <path
         style="color:#000000;fill:#c3ff27;stroke-width:1.0229;stroke-linecap:round;stroke-linejoin:round;-inkscape-stroke:none;paint-order:fill markers stroke"
         d="m 110.40039,193.41992 a 0.5,0.5 0 0 0 -0.36133,0.125 c -3.50705,3.09446 -7.00862,6.18263 -12.814451,10.99219 -5.805828,4.80956 -13.915549,11.33856 -20.738281,16.20703 -6.822732,4.86848 -12.358332,8.0798 -18.242187,10.74805 -5.883856,2.66825 -12.120387,4.79302 -19.125,6.92187 -7.004614,2.12885 -14.771893,4.25952 -19.775391,5.45899 -5.003498,1.19946 -7.232685,1.46907 -9.5019531,1.74414 a 0.5,0.5 0 0 0 -0.4355469,0.55664 0.5,0.5 0 0 0 0.5566406,0.43554 c 2.2692684,-0.27506 4.5788924,-0.55633 9.6152344,-1.76367 5.036342,-1.20734 12.808281,-3.33994 19.832031,-5.47461 7.023751,-2.13466 13.304071,-4.27323 19.248047,-6.96875 5.943977,-2.69551 11.546446,-5.94742 18.408203,-10.84375 6.861758,-4.89632 14.981134,-11.43418 20.796875,-16.25195 5.815739,-4.81777 9.328879,-7.91726 12.835939,-11.01172 a 0.5,0.5 0 0 0 0.0449,-0.70703 0.5,0.5 0 0 0 -0.34375,-0.16797 z"
         id="path57" />
      <path
         style="color:#000000;fill:#c3ff27;stroke-width:1.0229;stroke-linecap:round;stroke-linejoin:round;-inkscape-stroke:none;paint-order:fill markers stroke"
         d="m 174.55273,120.83594 c -7.97683,3.09446 -15.92725,6.17878 -24.7539,8.19726 -8.82666,2.01849 -18.59329,2.98062 -26.96875,5.0918 -8.37546,2.11118 -15.28219,5.35759 -22.11328,8.27539 -6.831093,2.9178 -13.633626,5.52934 -19.515628,7.83398 -5.882002,2.30465 -10.837806,4.29941 -14.404297,5.9961 -3.566491,1.69668 -5.722391,3.08715 -7.767578,4.24609 -2.045188,1.15894 -4.025789,2.11604 -5.839844,2.9375 -1.765503,0.79948 -3.34599,1.44439 -4.042969,1.64649 a 0.5,0.5 0 0 0 -0.236328,-0.26368 0.5,0.5 0 0 0 -0.671875,0.22461 c -0.03438,0.0688 -0.07707,0.14917 -0.115234,0.26368 -0.03817,0.1145 -0.106307,0.30709 0.03125,0.55468 0.137557,0.2476 0.418287,0.31825 0.59375,0.32032 0.175463,0.002 0.338175,-0.0319 0.550781,-0.0898 0.850425,-0.23193 2.474128,-0.91716 4.304688,-1.74609 1.830559,-0.82893 3.839124,-1.79745 5.919921,-2.97656 2.080798,-1.17912 4.186701,-2.54003 7.703125,-4.21289 3.516425,-1.67287 8.462811,-3.66606 14.339844,-5.96875 5.877033,-2.3027 12.689544,-4.91837 19.542974,-7.84571 6.85342,-2.92734 13.70081,-6.14297 21.96679,-8.22656 8.26599,-2.08359 18.03022,-3.04723 26.94531,-5.08594 8.9151,-2.03871 16.91575,-5.14382 24.89258,-8.23828 a 0.5,0.5 0 0 0 0.28516,-0.64844 0.5,0.5 0 0 0 -0.64649,-0.28515 z"
         id="path58" />
      <path
         style="color:#000000;fill:#c3ff27;stroke-width:1.0229;stroke-linecap:round;stroke-linejoin:round;-inkscape-stroke:none;paint-order:fill markers stroke"
         d="m 199.44141,92.976562 a 0.5,0.5 0 0 0 -0.70508,0.06055 c -1.84774,2.188113 -3.70539,4.385136 -5.2793,6.623047 -1.57391,2.237911 -2.86853,4.531931 -4.16992,8.166011 -1.30139,3.63409 -2.61592,8.60887 -3.56836,13.3711 -0.95244,4.76222 -1.53945,9.31764 -2.05078,17.4746 -0.51133,8.15697 -0.95008,19.90883 -2.42969,31.81836 -1.47961,11.90954 -4.00421,24.00507 -5.72656,31.18555 -1.72235,7.18048 -2.64478,9.45294 -3.45508,13.0625 -0.8103,3.60956 -1.49161,8.47794 -1.66406,11.7793 -0.17246,3.30135 0.17916,5.03621 0.51953,6.68945 a 0.5,0.5 0 0 0 0.5918,0.39063 0.5,0.5 0 0 0 0.38867,-0.5918 c -0.34037,-1.65324 -0.66987,-3.22311 -0.50196,-6.4375 0.16792,-3.21439 0.84826,-8.071 1.64258,-11.60938 0.79433,-3.53837 1.72115,-5.83634 3.45117,-13.04882 1.73003,-7.21248 4.25955,-19.33144 5.7461,-31.29688 1.48655,-11.96544 1.92575,-23.74635 2.43555,-31.87891 0.50979,-8.13255 1.08927,-12.62212 2.0332,-17.34179 0.94393,-4.71968 2.25355,-9.66605 3.5293,-13.22852 1.27574,-3.56246 2.50878,-5.74075 4.04687,-7.92773 1.53809,-2.186979 3.37687,-4.366574 5.22461,-6.554686 a 0.5,0.5 0 0 0 -0.0586,-0.705079 z"
         id="path59" />
      <path
         style="color:#000000;fill:#c3ff27;stroke-width:1.0229;stroke-linecap:round;stroke-linejoin:round;-inkscape-stroke:none;paint-order:fill markers stroke"
         d="m 224.51172,218.17969 a 0.5,0.5 0 0 0 -0.55664,0.43554 c -0.82519,6.80781 -1.65001,13.61075 -2.64453,19.64649 -0.99453,6.03574 -2.15923,11.31215 -3.39063,15.65625 -1.2314,4.3441 -2.53236,7.76068 -3.68359,10.13086 -1.15123,2.37018 -2.15015,3.70085 -3.18164,5.07617 a 0.5,0.5 0 0 0 0.0996,0.69922 0.5,0.5 0 0 0 0.70117,-0.0996 c 1.03149,-1.37532 2.09443,-2.79483 3.28125,-5.23828 1.18682,-2.44345 2.49995,-5.9057 3.74414,-10.29492 1.24419,-4.38923 2.41632,-9.70046 3.41601,-15.76758 0.9997,-6.06713 1.82521,-12.8797 2.6504,-19.6875 a 0.5,0.5 0 0 0 -0.43555,-0.55664 z"
         id="path60" />
      <path
         style="color:#000000;fill:#c3ff27;stroke-width:1.0229;stroke-linecap:round;stroke-linejoin:round;-inkscape-stroke:none;paint-order:fill markers stroke"
         d="m 229.0332,241.2832 a 0.5,0.5 0 0 0 -0.36328,0.11328 0.5,0.5 0 0 0 -0.0625,0.70508 c 2.13174,2.54433 4.26333,5.08844 5.94922,7.08399 1.68589,1.99554 2.92552,3.44171 4.26758,4.99023 1.34205,1.54853 2.80087,3.21883 4.48828,4.66016 1.68741,1.44132 3.56292,2.62305 4.83594,3.29492 1.27301,0.67186 1.99028,0.8392 2.62695,0.94531 0.63667,0.10611 1.26392,0.17538 1.88281,0.24414 a 0.5,0.5 0 0 0 0.55274,-0.4414 0.5,0.5 0 0 0 -0.44141,-0.55274 c -0.61889,-0.0688 -1.22895,-0.13614 -1.83008,-0.23633 -0.60113,-0.10018 -1.12165,-0.20906 -2.32422,-0.84375 -1.20256,-0.63468 -3.03896,-1.79183 -4.65234,-3.16992 -1.61338,-1.37809 -3.04297,-3.00872 -4.38281,-4.55469 -1.33984,-1.54596 -2.57611,-2.98757 -4.25977,-4.98046 -1.68365,-1.9929 -3.81553,-4.53771 -5.94726,-7.08204 a 0.5,0.5 0 0 0 -0.33985,-0.17578 z"
         id="path61" />
      <path
         style="color:#000000;fill:#c3ff27;stroke-width:1.0229;stroke-linecap:round;stroke-linejoin:round;-inkscape-stroke:none;paint-order:fill markers stroke"
         d="m 144.05273,155.92773 a 0.5,0.5 0 0 0 -0.66992,0.22852 c -2.82023,5.73771 -5.64891,11.48543 -7.27148,16.40234 -1.62257,4.91692 -2.01357,8.9322 -3.0293,13.91407 -1.01572,4.98186 -2.66796,11.00478 -4.16016,15 -1.49219,3.99521 -2.81624,5.97534 -4.17773,8.01757 a 0.5,0.5 0 0 0 0.13867,0.69336 0.5,0.5 0 0 0 0.69336,-0.13867 c 1.36149,-2.04223 2.76064,-4.14613 4.2832,-8.22265 1.52257,-4.07653 3.17658,-10.1135 4.20313,-15.14844 1.02655,-5.03495 1.41334,-8.99463 3,-13.80274 1.58666,-4.8081 4.39852,-10.53572 7.21875,-16.27343 a 0.5,0.5 0 0 0 -0.22852,-0.66993 z"
         id="path62" />
      <path
         style="color:#000000;fill:#c3ff27;stroke-width:1.0229;stroke-linecap:round;stroke-linejoin:round;-inkscape-stroke:none;paint-order:fill markers stroke"
         d="m 122.16797,179.80664 c -5.15422,0.778 -10.31336,1.55595 -14.99414,2.43359 -4.68079,0.87765 -8.89651,1.85237 -12.277346,3.44336 -3.380833,1.59099 -5.859531,3.77709 -8.685547,6.40821 -2.826015,2.63112 -6.032367,5.73594 -8.761718,7.79492 -2.729352,2.05898 -5.011716,3.10408 -7.345703,4.17383 a 0.5,0.5 0 0 0 -0.246094,0.66406 0.5,0.5 0 0 0 0.662109,0.24609 c 2.333987,-1.06974 4.719294,-2.16434 7.533203,-4.28711 2.813911,-2.12276 6.025327,-5.24091 8.839844,-7.86132 2.814517,-2.62042 5.197516,-4.71335 8.429688,-6.23438 3.23217,-1.52103 7.379924,-2.49238 12.035154,-3.36523 4.65524,-0.87286 9.80477,-1.64974 14.95899,-2.42774 a 0.5,0.5 0 0 0 0.41992,-0.56836 0.5,0.5 0 0 0 -0.56836,-0.41992 z"
         id="path63" />
      <path
         style="color:#000000;fill:#c3ff27;stroke-width:1.0229;stroke-linecap:round;stroke-linejoin:round;-inkscape-stroke:none;paint-order:fill markers stroke"
         d="m 166.26367,130.56641 a 0.5,0.5 0 0 0 -0.6875,0.16992 c -2.82023,4.66797 -5.65256,9.34412 -7.0918,13.31445 -1.43923,3.97033 -1.43961,7.18031 -1.29296,10.25977 0.14664,3.07945 0.43906,6.09942 0.73046,9.69336 0.29141,3.59393 0.57792,7.75748 0.29102,11.24804 -0.2869,3.49057 -1.14864,6.3665 -1.63086,7.86133 -0.24111,0.74742 -0.38518,1.14073 -0.46875,1.33399 -0.0836,0.19325 -0.0412,0.11934 -0.0898,0.16796 a 0.5,0.5 0 0 0 0,0.70704 0.5,0.5 0 0 0 0.70703,0 c 0.0486,-0.0486 0.18986,-0.22006 0.30078,-0.47657 0.11092,-0.2565 0.25679,-0.66581 0.50195,-1.42578 0.49033,-1.51995 1.37917,-4.47723 1.67578,-8.08594 0.29662,-3.60871 10e-4,-7.80949 -0.29101,-11.41211 -0.29211,-3.60261 -0.5834,-6.61284 -0.72852,-9.66015 -0.14511,-3.04731 -0.14662,-6.06141 1.23438,-9.8711 1.381,-3.80968 4.18953,-8.46874 7.00976,-13.13671 a 0.5,0.5 0 0 0 -0.16992,-0.6875 z"
         id="path64" />
      <path
         style="color:#000000;fill:#c3ff27;stroke-width:1.0229;stroke-linecap:round;stroke-linejoin:round;-inkscape-stroke:none;paint-order:fill markers stroke"
         d="m 115.71875,188.29687 a 0.5,0.5 0 0 0 -0.65039,0.2793 c -2.33399,5.83497 -4.68201,11.69143 -5.66797,17.21289 -0.98596,5.52146 -0.59368,10.6158 -0.73828,15.14649 -0.1446,4.53068 -0.8198,8.58948 -1.35547,12.0957 -0.53567,3.50622 -0.91954,6.37378 -2.15625,9.41797 -1.23671,3.04419 -3.36051,6.3361 -5.499999,9.64258 a 0.5,0.5 0 0 0 0.148437,0.6914 0.5,0.5 0 0 0 0.691402,-0.14843 c 2.13949,-3.30648 4.29413,-6.62877 5.58594,-9.8086 1.29182,-3.17983 1.68467,-6.14874 2.21875,-9.64453 0.53408,-3.49579 1.22003,-7.60401 1.36719,-12.21484 0.14716,-4.61084 -0.23636,-9.63138 0.72266,-15.00196 0.95902,-5.37057 3.27734,-11.18261 5.61132,-17.01757 a 0.5,0.5 0 0 0 -0.27734,-0.6504 z"
         id="path65" />
      <path
         style="color:#000000;fill:#c3ff27;stroke-width:1.0229;stroke-linecap:round;stroke-linejoin:round;-inkscape-stroke:none;paint-order:fill markers stroke"
         d="m 63.501953,246.35742 a 0.5,0.5 0 0 0 -0.654297,0.26953 c -1.458744,3.50099 -2.92526,7.01043 -3.669922,9.93946 -0.744661,2.92902 -0.74414,5.22998 -0.74414,8.39062 v 10.06445 5.93164 a 0.5,0.5 0 0 0 0.5,0.5 0.5,0.5 0 0 0 0.5,-0.5 v -5.93164 -10.06445 c 0,-3.16064 -0.0012,-5.3358 0.71289,-8.14453 0.714079,-2.80873 2.166256,-6.2998 3.625,-9.80078 a 0.5,0.5 0 0 0 -0.269531,-0.6543 z"
         id="path66" />
      <path
         style="color:#000000;fill:#c3ff27;stroke-width:1.0229;stroke-linecap:round;stroke-linejoin:round;-inkscape-stroke:none;paint-order:fill markers stroke"
         d="m 52.064453,258.89062 c -5.543216,1.84774 -11.080675,3.69149 -15.365234,4.6543 -4.284562,0.96282 -7.34667,1.05664 -9.373047,1.05664 -2.026378,0 -2.965005,-0.0942 -3.9375,-0.1914 a 0.5,0.5 0 0 0 -0.546875,0.44726 0.5,0.5 0 0 0 0.449219,0.54688 c 0.972495,0.0973 1.977033,0.19726 4.035156,0.19726 2.058123,0 5.221096,-0.0999 9.591797,-1.08203 4.370702,-0.98217 9.919674,-2.8339 15.46289,-4.68164 a 0.5,0.5 0 0 0 0.316407,-0.63086 0.5,0.5 0 0 0 -0.632813,-0.31641 z"
         id="path67" />
      <path
         style="color:#000000;fill:#c3ff27;stroke-width:1.0229;stroke-linecap:round;stroke-linejoin:round;-inkscape-stroke:none;paint-order:fill markers stroke"
         d="m 120.67773,122.95898 c -2.92619,0.0488 -4.21206,0.14709 -4.93554,0.19532 -0.72349,0.0482 -0.90919,0.047 -2.12696,0.0957 -1.21776,0.0487 -3.45271,0.14689 -5.68945,0.24414 a 0.5,0.5 0 0 0 -0.47851,0.52149 0.5,0.5 0 0 0 0.52148,0.47656 c 2.23674,-0.0972 4.47399,-0.19365 5.6875,-0.24219 1.21351,-0.0485 1.41709,-0.0486 2.15234,-0.0977 0.73526,-0.049 1.97793,-0.14488 4.88672,-0.19336 2.90879,-0.0485 7.45839,-0.0462 11.63672,0.57813 4.17834,0.62434 8.0842,1.89255 12.91211,2.33594 4.82791,0.44339 10.48648,0.0491 16.12695,-0.33985 a 0.5,0.5 0 0 0 0.46485,-0.5332 0.5,0.5 0 0 0 -0.53321,-0.46289 c -5.64047,0.389 -11.26418,0.77172 -15.96679,0.33984 -4.70261,-0.43188 -8.57497,-1.69017 -12.85742,-2.33007 -4.28246,-0.6399 -8.8746,-0.63666 -11.80079,-0.5879 z"
         id="path68" />
      <path
         style="color:#000000;fill:#c3ff27;stroke-width:1.0229;stroke-linecap:round;stroke-linejoin:round;-inkscape-stroke:none;paint-order:fill markers stroke"
         d="m 104.49219,63.103516 a 0.5,0.5 0 0 0 -0.54492,0.451171 0.5,0.5 0 0 0 0.45117,0.544922 c 3.11198,0.291749 6.24383,0.586265 9.48828,0.53711 3.24445,-0.04915 6.57504,-0.437334 8.49023,-0.390625 0.9576,0.02335 1.53266,0.140597 2.25391,0.447265 0.72124,0.306669 1.5919,0.822459 3.00586,1.626953 2.82792,1.60899 7.78111,4.33885 10.57617,6.660157 2.79506,2.321305 3.48424,4.186828 3.96094,6.570312 0.4767,2.383484 0.67408,5.205334 1.16601,8.058594 0.49194,2.853262 1.27474,5.689534 2.05274,8.509766 a 0.5,0.5 0 0 0 0.61523,0.347656 0.5,0.5 0 0 0 0.34766,-0.615235 c -0.778,-2.820231 -1.55069,-5.624848 -2.03125,-8.412109 -0.48056,-2.787262 -0.67216,-5.604958 -1.16797,-8.083984 -0.49581,-2.479025 -1.36193,-4.698609 -4.30469,-7.142578 -2.94275,-2.443968 -7.90814,-5.161466 -10.7207,-6.761719 -1.40628,-0.800127 -2.28678,-1.327974 -3.10938,-1.677735 -0.82259,-0.34976 -1.58504,-0.500123 -2.62109,-0.52539 -2.07209,-0.05053 -5.35522,0.340583 -8.5293,0.388672 -3.17407,0.04809 -6.26692,-0.241455 -9.3789,-0.533203 z"
         id="path69" />
      <path
         style="color:#000000;fill:#c3ff27;stroke-width:1.0229;stroke-linecap:round;stroke-linejoin:round;-inkscape-stroke:none;paint-order:fill markers stroke"
         d="m 105.41016,43.853516 a 0.5,0.5 0 0 0 -0.58008,0.402343 0.5,0.5 0 0 0 0.40234,0.582032 c 1.06974,0.194499 2.11648,0.383522 4.68555,1.013671 2.56907,0.63015 6.66,1.702903 11.77148,2.919922 5.11148,1.21702 11.25319,2.582939 17.26758,3.316407 6.01439,0.733468 11.86816,0.830485 17.70313,0.927734 a 0.5,0.5 0 0 0 0.50781,-0.492188 0.5,0.5 0 0 0 -0.49024,-0.507812 c -5.83496,-0.09725 -11.65219,-0.196575 -17.59961,-0.921875 -5.94741,-0.7253 -12.05841,-2.080685 -17.1582,-3.294922 -5.09979,-1.214236 -9.17851,-2.283872 -11.76367,-2.917969 -2.58516,-0.634096 -3.67635,-0.832844 -4.74609,-1.027343 z"
         id="path70" />
      <g
         inkscape:label="Layer 1 copy"
         inkscape:groupmode="layer"
         id="g129"
         style="stroke:#6aff01;stroke-width:1.0229;stroke-opacity:0.512953">
        <path
           style="color:#000000;fill:#c3ff27;stroke:#6aff01;stroke-width:1.32978;stroke-linecap:round;stroke-linejoin:round;stroke-dasharray:none;stroke-opacity:0.512953;paint-order:fill markers stroke"
           d="M 295.91016,3.1328125 C 261.9399,33.389726 227.97522,63.642677 211.55469,79.546875 c -8.21027,7.952098 -12.11655,12.282471 -12.6211,16.052734 -0.25227,1.885132 0.43099,3.567967 1.78711,5.259771 1.35612,1.69179 3.38543,3.44946 5.97461,5.66015 10.35673,8.84278 29.88354,25.00295 42.48242,36.64063 12.59889,11.63768 18.27018,18.74524 23.21094,25.60742 4.94076,6.86218 9.12981,13.45534 12.98242,19.40625 3.85262,5.95091 7.36013,11.248 10.86719,16.54297 a 0.5,0.5 0 0 0 0.69336,0.14062 0.5,0.5 0 0 0 0.14063,-0.69336 c -3.50707,-5.29496 -7.01211,-10.58754 -10.86133,-16.5332 -3.84922,-5.94567 -8.05013,-12.55616 -13.01172,-19.44727 -4.96159,-6.89111 -10.70551,-14.08377 -23.34375,-25.75781 -12.63824,-11.67403 -32.16958,-27.83568 -42.51172,-36.66601 -2.58554,-2.20759 -4.58243,-3.95186 -5.84375,-5.52539 -1.26132,-1.573543 -1.78609,-2.918705 -1.57422,-4.501958 0.42375,-3.166506 4.13388,-7.533997 12.32422,-15.466797 16.38068,-15.8656 50.35591,-46.127852 84.32617,-76.3847656 a 0.5,0.5 0 0 0 0.041,-0.7070313 0.5,0.5 0 0 0 -0.70703,-0.041016 z"
           id="path100" />
        <path
           style="color:#000000;fill:#c3ff27;stroke:#6aff01;stroke-width:1.32978;stroke-linecap:round;stroke-linejoin:round;stroke-dasharray:none;stroke-opacity:0.512953;paint-order:fill markers stroke"
           d="m 201.00195,91.115234 a 0.5,0.5 0 0 0 -0.29883,0.238282 c -0.68765,1.237782 -1.39107,2.503043 -2.25976,4.58789 -0.86869,2.084847 -1.9374,5.138944 -0.99414,10.728514 0.94325,5.58957 3.83896,13.69892 6.89844,22.46485 3.05948,8.76592 6.28605,18.17494 8.92773,28.08984 2.64168,9.9149 4.70057,20.35033 6.31445,30.78906 1.61388,10.43873 2.78277,20.88936 4.33203,31.08008 1.54927,10.19072 3.47818,20.10894 5.82032,29.61523 2.34213,9.5063 5.09728,18.59893 7.89453,25.71289 2.79724,7.11397 5.63177,12.22969 8.45117,17.31836 a 0.5,0.5 0 0 0 0.67969,0.19532 0.5,0.5 0 0 0 0.19531,-0.67969 c -2.8194,-5.08867 -5.62366,-10.1493 -8.39648,-17.20117 -2.77283,-7.05187 -5.51953,-16.11271 -7.85352,-25.58594 -2.33399,-9.47323 -4.25555,-19.36125 -5.80078,-29.52539 -1.54523,-10.16414 -2.71585,-20.61579 -4.33399,-31.08203 -1.61813,-10.46625 -3.68261,-20.93593 -6.33593,-30.89453 -2.65333,-9.95861 -5.89044,-19.3926 -8.95117,-28.16211 -3.06074,-8.76952 -5.942,-16.88768 -6.85547,-22.30078 -0.91348,-5.41311 0.0812,-8.136586 0.93164,-10.177738 0.85048,-2.041151 1.52132,-3.250499 2.20898,-4.488281 a 0.5,0.5 0 0 0 -0.19336,-0.679688 0.5,0.5 0 0 0 -0.38086,-0.04297 z"
           id="path101" />
        <path
           style="color:#000000;fill:#c3ff27;stroke:#6aff01;stroke-width:1.32978;stroke-linecap:round;stroke-linejoin:round;stroke-dasharray:none;stroke-opacity:0.512953;paint-order:fill markers stroke"
           d="m 203.79883,87.794922 a 0.5,0.5 0 0 0 -0.34766,0.164062 c -8.93954,9.833498 -17.90376,19.681686 -23.24414,29.599606 -5.34038,9.91792 -7.00107,19.83895 -8.17187,32.58008 -1.1708,12.74113 -1.85881,28.32842 -4.94336,43.7168 -3.08456,15.38837 -8.57507,30.62741 -14.10547,44.29883 -5.53041,13.67141 -11.0965,25.76698 -14.98633,34.82031 -3.88983,9.05332 -6.0986,15.0522 -7.66406,18.52344 -1.56547,3.47124 -2.45329,4.40405 -3.41602,5.43554 a 0.5,0.5 0 0 0 0.0234,0.70703 0.5,0.5 0 0 0 0.70703,-0.0254 c 0.96273,-1.03149 1.99988,-2.16219 3.59766,-5.70507 1.59777,-3.54289 3.79113,-9.50885 7.67187,-18.54102 3.88074,-9.03217 9.45315,-21.14226 14.99414,-34.83984 5.54099,-13.69758 11.05373,-28.98882 14.15821,-44.47657 3.10447,-15.48774 3.79173,-31.11977 4.95898,-43.82226 1.16725,-12.70249 2.80707,-22.44799 8.05664,-32.19727 5.24957,-9.74927 14.16397,-19.568843 23.10352,-29.402341 a 0.5,0.5 0 0 0 -0.0332,-0.705078 0.5,0.5 0 0 0 -0.35937,-0.130859 z"
           id="path102" />
        <path
           style="color:#000000;fill:#c3ff27;stroke:#6aff01;stroke-width:1.32978;stroke-linecap:round;stroke-linejoin:round;stroke-dasharray:none;stroke-opacity:0.512953;paint-order:fill markers stroke"
           d="m 206.00977,86.064453 a 0.5,0.5 0 0 0 -0.70508,0.04102 L 20.255859,294.25977 a 0.5,0.5 0 0 0 0.04102,0.70703 0.5,0.5 0 0 0 0.707031,-0.041 L 206.05273,86.771484 a 0.5,0.5 0 0 0 -0.043,-0.707031 z"
           id="path103" />
        <path
           style="color:#000000;fill:#c3ff27;stroke:#6aff01;stroke-width:1.32978;stroke-linecap:round;stroke-linejoin:round;stroke-dasharray:none;stroke-opacity:0.512953;paint-order:fill markers stroke"
           d="m 187.44531,107.52148 a 0.5,0.5 0 0 0 -0.70508,0.0371 c -10.38362,11.55265 -20.77127,23.10107 -28.65429,29.55078 -7.88302,6.44972 -13.24823,7.8449 -20.59961,9.5625 -7.35139,1.71761 -16.5963,3.71846 -27.77149,7.85743 -11.175178,4.13897 -24.248793,10.40239 -35.630856,15.90429 -11.382062,5.50191 -21.073606,10.24429 -32.101562,15.19141 -11.027957,4.94712 -23.405808,10.10124 -31.398438,12.49219 -7.99263,2.39094 -11.56985366,2.04304 -15.2832027,1.69922 a 0.5,0.5 0 0 0 -0.5429688,0.45312 0.5,0.5 0 0 0 0.4511719,0.54297 c 3.7133491,0.34383 7.5634888,0.68437 15.6621096,-1.73828 8.098621,-2.42265 20.475395,-7.58186 31.521484,-12.53711 11.046089,-4.95525 20.747369,-9.70242 32.126953,-15.20313 11.379585,-5.5007 24.435839,-11.75414 35.541019,-15.86718 11.10517,-4.11305 20.28963,-6.0996 27.65429,-7.82032 7.36467,-1.72071 13.00193,-3.21467 21.00391,-9.76171 8.00198,-6.54705 18.382,-18.10361 28.76562,-29.65625 a 0.5,0.5 0 0 0 -0.0391,-0.70704 z"
           id="path104" />
        <path
           style="color:#000000;fill:#c3ff27;stroke:#6aff01;stroke-width:1.32978;stroke-linecap:round;stroke-linejoin:round;stroke-dasharray:none;stroke-opacity:0.512953;paint-order:fill markers stroke"
           d="m 120.5293,80.787109 c -2.7224,-0.116542 -5.56236,0.11176 -8.1543,0.605469 -5.18388,0.987417 -9.3228,3.0601 -14.333984,5.638672 -5.011188,2.578572 -10.925126,5.680724 -17.158204,8 -6.233078,2.319276 -12.821237,3.870616 -18.791015,5.08398 -5.969779,1.21337 -11.37696,2.09812 -18.625,5.23243 -7.248039,3.1343 -16.29594,8.49026 -23.097656,12.37695 -6.801717,3.88669 -11.3614411,6.31148 -13.5605473,7.5332 -1.0995529,0.61087 -1.5909324,0.90264 -1.8535156,1.10157 -0.065646,0.0497 -0.1181203,0.0903 -0.1835937,0.16992 -0.032737,0.0398 -0.072776,0.0897 -0.1054688,0.1914 -0.032693,0.10166 -0.034725,0.28848 0.048828,0.42774 0.1671065,0.27852 0.3398267,0.2476 0.4082032,0.25586 0.068376,0.008 0.1045939,0.006 0.1289062,0.006 a 0.5,0.5 0 0 0 0.3457031,-0.34571 c -0.020329,0.0439 -0.04168,0.0862 -0.052734,0.0996 -0.030334,0.0369 -0.020971,0.0184 0.013672,-0.008 0.1385723,-0.10498 0.6458176,-0.41868 1.734375,-1.02344 2.1771148,-1.20951 6.7589729,-3.64771 13.5722649,-7.54101 6.813293,-3.89331 15.852992,-9.23641 22.998047,-12.32617 7.145055,-3.08977 12.435729,-3.95399 18.427735,-5.17188 5.992005,-1.217886 12.629178,-2.778226 18.941406,-5.126953 C 87.544651,93.61807 93.494379,90.49563 98.5,87.919922 c 5.00562,-2.575708 9.03511,-4.587311 14.0625,-5.544922 5.02739,-0.957611 11.10432,-0.839319 15.03125,0.796875 3.92692,1.636192 5.94187,4.884389 10.23047,8.433594 4.2886,3.549205 10.74865,7.264149 19.00976,10.343751 8.26112,3.0796 18.30796,5.54974 25.64063,4.30273 7.33268,-1.24701 11.71907,-6.24104 15.99805,-11.103513 a 0.5,0.5 0 0 0 -0.0449,-0.705078 0.5,0.5 0 0 0 -0.70507,0.04492 c -4.27898,4.862472 -8.45283,9.593171 -15.41602,10.777351 -6.96319,1.18417 -16.94888,-1.20672 -25.12305,-4.25391 -8.17416,-3.047191 -14.55052,-6.724919 -18.72265,-10.177738 -4.17214,-3.452819 -6.24027,-6.816449 -10.48242,-8.583984 -2.12108,-0.883767 -4.72682,-1.346349 -7.44922,-1.462891 z"
           id="path105" />
        <path
           style="color:#000000;fill:#c3ff27;stroke:#6aff01;stroke-width:1.32978;stroke-linecap:round;stroke-linejoin:round;stroke-dasharray:none;stroke-opacity:0.512953;paint-order:fill markers stroke"
           d="m 103.03906,84.693359 a 0.5,0.5 0 0 0 -0.36523,0.107422 c -4.570724,3.695477 -9.16413,7.408017 -13.857424,12.296875 -4.693293,4.888854 -9.451631,10.905894 -14.755859,15.679684 -5.304229,4.77379 -11.2175,8.36212 -15.826172,11.99024 -4.608672,3.62811 -7.852919,7.26412 -10.212891,10.60742 -2.359971,3.3433 -3.832695,6.38349 -4.529297,8.125 -0.3483,0.87075 -0.508583,1.42512 -0.566406,1.85156 -0.05782,0.42644 0.01192,0.74105 0.06055,0.93555 a 0.5,0.5 0 0 0 0.605469,0.36328 0.5,0.5 0 0 0 0.363281,-0.60547 c -0.04863,-0.1945 -0.07654,-0.26782 -0.03711,-0.55859 0.03943,-0.29078 0.171461,-0.78412 0.503906,-1.61524 0.664891,-1.66223 2.107984,-4.6502 4.416016,-7.91992 2.308031,-3.26972 5.482786,-6.83002 10.015625,-10.39844 4.532838,-3.56841 10.483627,-7.17727 15.876953,-12.03125 5.393327,-4.85397 10.165849,-10.89426 14.808593,-15.730464 4.642744,-4.836201 9.190997,-8.515461 13.761716,-12.210938 a 0.5,0.5 0 0 0 0.0762,-0.703125 0.5,0.5 0 0 0 -0.33789,-0.183594 z"
           id="path106" />
        <path
           style="color:#000000;fill:#c3ff27;stroke:#6aff01;stroke-width:1.32978;stroke-linecap:round;stroke-linejoin:round;stroke-dasharray:none;stroke-opacity:0.512953;paint-order:fill markers stroke"
           d="m 12.878906,69.8125 a 0.5,0.5 0 0 0 -0.365234,0.117187 0.5,0.5 0 0 0 -0.05859,0.705079 c 1.069744,1.264242 2.146139,2.537119 4.095703,4.68164 1.949565,2.144522 4.807013,5.196558 9.560547,8.626953 4.753535,3.430396 11.401803,7.247098 18.384766,9.3125 6.982964,2.065403 14.252741,2.355963 22.607422,1.525391 8.354682,-0.830573 17.799228,-2.77962 27.232421,-4.724609 A 0.5,0.5 0 0 0 94.724613,89.466797 0.5,0.5 0 0 0 94.13477,89.076172 C 84.701572,91.021161 75.279017,92.962494 67.003906,93.785156 58.728794,94.607818 51.605883,94.316024 44.779297,92.296875 37.95271,90.277725 31.375025,86.509935 26.695312,83.132812 22.015599,79.75569 19.231449,76.777056 17.291016,74.642578 15.350582,72.508101 14.288493,71.252523 13.21875,69.988281 A 0.5,0.5 0 0 0 12.878906,69.8125 Z"
           id="path107" />
        <path
           style="color:#000000;fill:#c3ff27;stroke:#6aff01;stroke-width:1.32978;stroke-linecap:round;stroke-linejoin:round;stroke-dasharray:none;stroke-opacity:0.512953;paint-order:fill markers stroke"
           d="m 42.595703,38.886719 a 0.5,0.5 0 0 0 -0.353516,0.146484 0.5,0.5 0 0 0 0,0.707031 c 0.388999,0.388997 0.742993,0.738461 2.78125,3.310547 2.038258,2.572086 5.757026,7.370684 10.855469,11.88086 5.098444,4.510176 11.539485,8.704343 17.972656,12.457031 6.433172,3.752688 12.868272,7.067986 18.875,9.607422 6.00673,2.539436 11.568108,4.29443 17.111328,6.044922 a 0.5,0.5 0 0 0 0.62891,-0.326172 0.5,0.5 0 0 0 -0.32617,-0.626953 C 104.5974,80.337399 99.072267,78.591819 93.117187,76.074219 87.162107,73.556618 80.759347,70.259037 74.355469,66.523437 67.951591,62.787837 61.556584,58.618505 56.541016,54.181641 51.525446,49.744776 47.852866,45.011828 45.806641,42.429687 43.760415,39.847547 43.338217,39.4222 42.949219,39.033203 a 0.5,0.5 0 0 0 -0.353516,-0.146484 z"
           id="path108" />
        <path
           style="color:#000000;fill:#c3ff27;stroke:#6aff01;stroke-width:1.32978;stroke-linecap:round;stroke-linejoin:round;stroke-dasharray:none;stroke-opacity:0.512953;paint-order:fill markers stroke"
           d="m 25.855469,4.7851562 a 0.5,0.5 0 0 0 -0.648438,0.2851563 0.5,0.5 0 0 0 0.285156,0.6464844 c 5.251469,2.0422378 10.502039,4.0858807 14.681641,5.7382811 4.179603,1.652401 7.317245,2.925846 12.974609,4.632813 5.657365,1.706967 13.825108,3.844565 24.13086,6.664062 10.305751,2.819498 22.751793,6.31973 34.033203,9.480469 11.28141,3.160739 21.37615,5.980554 29.23828,9.791015 7.86213,3.810462 13.54415,8.626547 18.08399,13.552735 4.53983,4.926187 7.93565,9.969394 11.98632,15.09375 4.05068,5.124356 8.72716,10.292502 12.65625,13.730469 3.9291,3.437967 7.11043,5.132009 9.98243,6.171875 2.87199,1.039866 5.58025,1.470237 8.1289,0.169921 2.54866,-1.300317 4.76783,-4.151591 7.95899,-7.439453 3.19115,-3.287861 7.36905,-7.078367 11.55078,-10.871093 a 0.5,0.5 0 0 0 0.0332,-0.705079 0.5,0.5 0 0 0 -0.70508,-0.03516 c -4.18172,3.792727 -8.36835,7.588911 -11.5957,10.914063 -3.22735,3.325151 -5.48065,6.115184 -7.69727,7.246093 -2.21662,1.130912 -4.56544,0.781705 -7.33398,-0.220703 -2.76854,-1.002408 -5.81311,-2.614781 -9.66406,-5.984375 -3.85096,-3.369594 -8.50821,-8.508774 -12.5293,-13.595703 -4.02109,-5.086929 -7.43343,-10.158992 -12.03516,-15.152344 -4.60172,-4.99335 -10.39504,-9.901139 -18.38476,-13.773437 -7.98972,-3.872297 -18.1236,-6.694928 -29.4043,-9.855469 C 100.30133,28.10899 87.854257,24.608122 77.542969,21.787109 67.23168,18.966097 59.061129,16.825694 53.4375,15.128906 47.813871,13.432118 44.726921,12.177558 40.542969,10.523438 36.359017,8.8693174 31.106937,6.8273941 25.855469,4.7851562 Z"
           id="path109" />
        <path
           style="color:#000000;fill:#c3ff27;stroke:#6aff01;stroke-width:1.32978;stroke-linecap:round;stroke-linejoin:round;stroke-dasharray:none;stroke-opacity:0.512953;paint-order:fill markers stroke"
           d="m 98.744141,1.859375 a 0.5,0.5 0 0 0 -0.316407,0.6328125 c 0.04863,0.1458738 0.121248,0.3503677 0.308594,0.6992188 0.187346,0.348851 0.496164,0.8657683 1.058594,1.7460937 1.124858,1.7606511 3.296118,5.017049 7.083988,8.509766 3.78786,3.492717 9.13308,7.183691 15.14648,12.033203 6.0134,4.849511 12.71948,10.872882 19.42969,16.902343 a 0.5,0.5 0 0 0 0.70703,-0.03711 0.5,0.5 0 0 0 -0.0391,-0.705078 C 135.41284,35.611163 128.69993,29.576674 122.6543,24.701172 116.60867,19.82567 111.25703,16.124947 107.55664,12.712891 103.85625,9.3008332 101.7486,6.1387715 100.63672,4.3984375 100.08078,3.5282704 99.78237,3.0243771 99.617187,2.7167969 99.452005,2.4092166 99.425578,2.321655 99.376953,2.1757813 A 0.5,0.5 0 0 0 98.744141,1.859375 Z"
           id="path110" />
        <path
           style="color:#000000;fill:#c3ff27;stroke:#6aff01;stroke-width:1.32978;stroke-linecap:round;stroke-linejoin:round;stroke-dasharray:none;stroke-opacity:0.512953;paint-order:fill markers stroke"
           d="m 221.39648,117.80664 a 0.5,0.5 0 0 0 -0.33984,0.17383 0.5,0.5 0 0 0 0.0566,0.70508 c 5.83496,4.95971 11.66633,9.92105 15.92383,12.72656 4.2575,2.8055 6.9414,3.42382 11.60547,4.58984 4.66407,1.16602 11.42066,2.9174 16.18164,4.48828 4.76098,1.57089 7.58803,2.99038 10.91015,3.58985 3.32213,0.59947 7.00784,0.35183 9.60547,-0.22266 2.59764,-0.57448 4.09574,-1.49779 5.50586,-2.37305 a 0.5,0.5 0 0 0 0.16016,-0.6875 0.5,0.5 0 0 0 -0.6875,-0.1621 c -1.41013,0.87525 -2.734,1.70414 -5.19336,2.24804 -2.45936,0.54391 -6.06784,0.78237 -9.21289,0.21485 -3.14505,-0.56752 -5.95724,-1.9669 -10.77539,-3.55664 -4.81815,-1.58975 -11.57996,-3.34177 -16.25195,-4.50977 -4.672,-1.168 -7.14225,-1.7154 -11.29688,-4.45313 -4.15463,-2.73772 -9.99121,-7.69457 -15.82617,-12.65429 a 0.5,0.5 0 0 0 -0.36524,-0.11719 z"
           id="path111" />
        <path
           style="color:#000000;fill:#c3ff27;stroke:#6aff01;stroke-width:1.32978;stroke-linecap:round;stroke-linejoin:round;stroke-dasharray:none;stroke-opacity:0.512953;paint-order:fill markers stroke"
           d="m 208.82031,140.94336 a 0.5,0.5 0 0 0 -0.31445,0.63086 c 0.55012,1.65038 1.08235,3.25071 1.35156,5.53906 0.26922,2.28835 0.27153,5.29642 0.11719,9.25781 -0.15434,3.9614 -0.46247,8.87564 -0.61719,11.33399 -0.15056,2.39218 -0.95883,7.44167 -1.6914,13.79687 -0.73298,6.35875 -1.14581,12.50287 -2.22266,18.58789 -1.07685,6.08503 -2.8178,12.12897 -5.63867,18.57422 -2.82088,6.44526 -6.73199,13.30925 -9.73828,18.46289 -3.0063,5.15365 -5.10266,8.59251 -6.74414,11.56446 -1.64148,2.97194 -2.82117,5.46877 -3.72461,7.79687 -0.90344,2.3281 -1.52759,4.47568 -2.14649,6.60742 a 0.5,0.5 0 0 0 0.3418,0.61914 0.5,0.5 0 0 0 0.61914,-0.33984 c 0.61889,-2.13174 1.2327,-4.24614 2.11719,-6.52539 0.88448,-2.27925 2.04305,-4.73382 3.66797,-7.67578 1.62491,-2.94196 3.72167,-6.38169 6.73242,-11.54297 3.01075,-5.16128 6.93864,-12.04919 9.79101,-18.56641 2.85238,-6.51722 4.61773,-12.64539 5.70703,-18.80078 1.08931,-6.15539 1.50297,-12.31832 2.23243,-18.64648 0.72986,-6.3317 1.53642,-11.3251 1.69531,-13.84961 0.15472,-2.45835 0.46403,-7.37629 0.61914,-11.35742 0.15511,-3.98114 0.15786,-7.02434 -0.12305,-9.41211 -0.28091,-2.38778 -0.84831,-4.08986 -1.39844,-5.74024 a 0.5,0.5 0 0 0 -0.63281,-0.31445 z"
           id="path112" />
        <path
           style="color:#000000;fill:#c3ff27;stroke:#6aff01;stroke-width:1.32978;stroke-linecap:round;stroke-linejoin:round;stroke-dasharray:none;stroke-opacity:0.512953;paint-order:fill markers stroke"
           d="m 216.45898,167.41797 a 0.5,0.5 0 0 0 -0.3789,0.0508 0.5,0.5 0 0 0 -0.17969,0.68359 c 1.36149,2.33399 2.72216,4.66993 4.40039,7.51563 1.67824,2.8457 3.66932,6.19522 5.95117,10.27344 2.28186,4.07821 4.86791,8.91048 8.03125,13.27539 3.16335,4.36491 6.87277,8.219 10.3418,12.07617 3.46903,3.85717 6.72073,7.74348 8.56445,10.44922 1.84373,2.70573 2.34814,4.35112 4.44532,6.62304 2.09717,2.27193 5.70141,5.09084 8.48437,6.88868 2.78296,1.79783 4.73473,2.5503 5.83203,2.96484 1.09731,0.41454 1.40551,0.51603 1.69727,0.61328 a 0.5,0.5 0 0 0 0.63281,-0.31445 0.5,0.5 0 0 0 -0.31641,-0.63281 c -0.29175,-0.0973 -0.56932,-0.18947 -1.66015,-0.60157 -1.09084,-0.41209 -2.93091,-1.11736 -5.64258,-2.86914 -2.71167,-1.75178 -6.30364,-4.57358 -8.29102,-6.72656 -1.98738,-2.15298 -2.45508,-3.71893 -4.35547,-6.50781 -1.90038,-2.78889 -5.16406,-6.68046 -8.64843,-10.55469 -3.48437,-3.87423 -7.16608,-7.70378 -10.27539,-11.99414 -3.10932,-4.29036 -5.67788,-9.0869 -7.9668,-13.17774 -2.28892,-4.09083 -4.28598,-7.4495 -5.96289,-10.29296 -1.67691,-2.84346 -3.03695,-5.17774 -4.39844,-7.51172 a 0.5,0.5 0 0 0 -0.30469,-0.23047 z"
           id="path113" />
        <path
           style="color:#000000;fill:#c3ff27;stroke:#6aff01;stroke-width:1.32978;stroke-linecap:round;stroke-linejoin:round;stroke-dasharray:none;stroke-opacity:0.512953;paint-order:fill markers stroke"
           d="m 167.45117,196.2832 a 0.5,0.5 0 0 0 -0.70703,0.004 c -2.3583,2.38261 -4.73212,4.78021 -8.20703,8.87695 -3.47491,4.09675 -8.05701,9.89651 -11.75977,15.70117 -3.70276,5.80467 -6.50819,11.58554 -9.14648,17.05664 -2.63829,5.47111 -5.12228,10.64372 -7.35938,13.78516 -2.23709,3.14144 -4.22339,4.30978 -5.71875,5.19727 -1.49536,0.88749 -2.39211,1.42087 -2.82617,1.6875 -0.21704,0.13331 -0.29875,0.18076 -0.39453,0.25781 -0.0239,0.0193 -0.0475,0.0223 -0.11523,0.12109 -0.0169,0.0247 -0.0584,0.11265 -0.0586,0.11328 -1.1e-4,3.2e-4 -0.0253,0.10325 -0.0254,0.10352 -4e-5,2.7e-4 0.002,0.15016 0.002,0.15039 3e-5,2.3e-4 0.0604,0.16974 0.0605,0.16992 1.1e-4,1.9e-4 0.1092,0.13267 0.10938,0.13281 3.5e-4,3e-4 0.19862,0.10337 0.19922,0.10352 5.9e-4,1.5e-4 0.0851,0.0147 0.11132,0.0156 0.0263,9.3e-4 0.0433,-7.4e-4 0.0586,-0.002 0.0305,-0.002 0.049,-0.005 0.0625,-0.008 0.027,-0.005 0.0389,-0.008 0.0449,-0.01 a 0.5,0.5 0 0 0 0.24023,-0.15234 c 0.0238,-0.0153 0.0652,-0.0442 0.22852,-0.14453 0.41691,-0.25609 1.31742,-0.79236 2.8125,-1.67969 1.49508,-0.88732 3.68977,-2.19951 6.02344,-5.47656 2.33367,-3.27705 4.80972,-8.46013 7.44726,-13.92969 2.63755,-5.46956 5.42395,-11.21127 9.08789,-16.95508 3.66394,-5.7438 8.22354,-11.51751 11.67774,-15.58984 3.4542,-4.07232 5.79795,-6.43966 8.15625,-8.82227 a 0.5,0.5 0 0 0 -0.004,-0.70703 z m -45.80078,62.47657 c 0.0246,8.7e-4 0.10606,0.0158 0.10547,0.0156 -2.2e-4,-6e-5 0.0389,0.0198 0.0723,0.0371 a 0.5,0.5 0 0 0 -0.29102,-0.043 c -0.006,0.002 -0.007,10e-4 0.01,-0.002 0.008,-0.002 0.0223,-0.004 0.0488,-0.006 0.0133,-10e-4 0.0301,-0.003 0.0547,-0.002 z m 0.32227,0.14257 c 0.0263,0.0317 0.0899,0.10758 0.0898,0.10743 -1e-5,-3e-5 0.006,0.0178 0.008,0.0234 a 0.5,0.5 0 0 0 -0.0977,-0.13086 z"
           id="path114" />
        <path
           style="color:#000000;fill:#c3ff27;stroke:#6aff01;stroke-width:1.32978;stroke-linecap:round;stroke-linejoin:round;stroke-dasharray:none;stroke-opacity:0.512953;paint-order:fill markers stroke"
           d="m 107.58984,196.23047 a 0.5,0.5 0 0 0 -0.29882,0.23828 c -1.87206,3.37942 -3.73876,6.74336 -5.71485,9.41406 -1.976089,2.67071 -4.117446,4.71785 -6.285154,7.67383 -2.167709,2.95598 -4.31937,6.77116 -6.177735,10.73242 -1.858365,3.96126 -3.422591,8.0689 -4.597656,12.18164 -1.175065,4.11274 -1.955849,8.21066 -2.927734,13.02149 -0.971885,4.81083 -2.135612,10.33821 -3.728516,15.26172 -1.592904,4.9235 -3.63283,9.2915 -4.912109,13.32617 -1.27928,4.03466 -1.772782,7.67845 -1.822266,10.54883 -0.04948,2.87037 0.348147,4.96177 0.644531,6.24609 0.296384,1.28432 0.508627,1.8243 0.703125,2.31055 a 0.5,0.5 0 0 0 0.650391,0.27929 0.5,0.5 0 0 0 0.279297,-0.65039 c -0.194499,-0.48625 -0.371083,-0.91988 -0.658203,-2.16406 -0.28712,-1.24418 -0.666897,-3.23572 -0.619141,-6.00586 0.04776,-2.77014 0.526171,-6.32185 1.775391,-10.26172 1.249219,-3.93986 3.29379,-8.32429 4.910156,-13.32031 1.616366,-4.99602 2.784685,-10.55607 3.757812,-15.37305 0.973128,-4.81698 1.749264,-8.88706 2.908203,-12.94336 1.15894,-4.0563 2.705826,-8.11718 4.542969,-12.0332 1.837143,-3.91602 3.966816,-7.68734 6.078125,-10.56641 2.111309,-2.87906 4.247714,-4.91698 6.283204,-7.66796 2.03549,-2.75099 3.9131,-6.14597 5.78516,-9.5254 a 0.5,0.5 0 0 0 -0.19532,-0.67968 0.5,0.5 0 0 0 -0.38086,-0.043 z"
           id="path115" />
        <path
           style="color:#000000;fill:#c3ff27;stroke:#6aff01;stroke-width:1.32978;stroke-linecap:round;stroke-linejoin:round;stroke-dasharray:none;stroke-opacity:0.512953;paint-order:fill markers stroke"
           d="m 110.40039,193.41992 a 0.5,0.5 0 0 0 -0.36133,0.125 c -3.50705,3.09446 -7.00862,6.18263 -12.814451,10.99219 -5.805828,4.80956 -13.915549,11.33856 -20.738281,16.20703 -6.822732,4.86848 -12.358332,8.0798 -18.242187,10.74805 -5.883856,2.66825 -12.120387,4.79302 -19.125,6.92187 -7.004614,2.12885 -14.771893,4.25952 -19.775391,5.45899 -5.003498,1.19946 -7.232685,1.46907 -9.5019531,1.74414 a 0.5,0.5 0 0 0 -0.4355469,0.55664 0.5,0.5 0 0 0 0.5566406,0.43554 c 2.2692684,-0.27506 4.5788924,-0.55633 9.6152344,-1.76367 5.036342,-1.20734 12.808281,-3.33994 19.832031,-5.47461 7.023751,-2.13466 13.304071,-4.27323 19.248047,-6.96875 5.943977,-2.69551 11.546446,-5.94742 18.408203,-10.84375 6.861758,-4.89632 14.981134,-11.43418 20.796875,-16.25195 5.815739,-4.81777 9.328879,-7.91726 12.835939,-11.01172 a 0.5,0.5 0 0 0 0.0449,-0.70703 0.5,0.5 0 0 0 -0.34375,-0.16797 z"
           id="path116" />
        <path
           style="color:#000000;fill:#c3ff27;stroke:#6aff01;stroke-width:1.32978;stroke-linecap:round;stroke-linejoin:round;stroke-dasharray:none;stroke-opacity:0.512953;paint-order:fill markers stroke"
           d="m 174.55273,120.83594 c -7.97683,3.09446 -15.92725,6.17878 -24.7539,8.19726 -8.82666,2.01849 -18.59329,2.98062 -26.96875,5.0918 -8.37546,2.11118 -15.28219,5.35759 -22.11328,8.27539 -6.831093,2.9178 -13.633626,5.52934 -19.515628,7.83398 -5.882002,2.30465 -10.837806,4.29941 -14.404297,5.9961 -3.566491,1.69668 -5.722391,3.08715 -7.767578,4.24609 -2.045188,1.15894 -4.025789,2.11604 -5.839844,2.9375 -1.765503,0.79948 -3.34599,1.44439 -4.042969,1.64649 a 0.5,0.5 0 0 0 -0.236328,-0.26368 0.5,0.5 0 0 0 -0.671875,0.22461 c -0.03438,0.0688 -0.07707,0.14917 -0.115234,0.26368 -0.03817,0.1145 -0.106307,0.30709 0.03125,0.55468 0.137557,0.2476 0.418287,0.31825 0.59375,0.32032 0.175463,0.002 0.338175,-0.0319 0.550781,-0.0898 0.850425,-0.23193 2.474128,-0.91716 4.304688,-1.74609 1.830559,-0.82893 3.839124,-1.79745 5.919921,-2.97656 2.080798,-1.17912 4.186701,-2.54003 7.703125,-4.21289 3.516425,-1.67287 8.462811,-3.66606 14.339844,-5.96875 5.877033,-2.3027 12.689544,-4.91837 19.542974,-7.84571 6.85342,-2.92734 13.70081,-6.14297 21.96679,-8.22656 8.26599,-2.08359 18.03022,-3.04723 26.94531,-5.08594 8.9151,-2.03871 16.91575,-5.14382 24.89258,-8.23828 a 0.5,0.5 0 0 0 0.28516,-0.64844 0.5,0.5 0 0 0 -0.64649,-0.28515 z"
           id="path117" />
        <path
           style="color:#000000;fill:#c3ff27;stroke:#6aff01;stroke-width:1.32978;stroke-linecap:round;stroke-linejoin:round;stroke-dasharray:none;stroke-opacity:0.512953;paint-order:fill markers stroke"
           d="m 199.44141,92.976562 a 0.5,0.5 0 0 0 -0.70508,0.06055 c -1.84774,2.188113 -3.70539,4.385136 -5.2793,6.623047 -1.57391,2.237911 -2.86853,4.531931 -4.16992,8.166011 -1.30139,3.63409 -2.61592,8.60887 -3.56836,13.3711 -0.95244,4.76222 -1.53945,9.31764 -2.05078,17.4746 -0.51133,8.15697 -0.95008,19.90883 -2.42969,31.81836 -1.47961,11.90954 -4.00421,24.00507 -5.72656,31.18555 -1.72235,7.18048 -2.64478,9.45294 -3.45508,13.0625 -0.8103,3.60956 -1.49161,8.47794 -1.66406,11.7793 -0.17246,3.30135 0.17916,5.03621 0.51953,6.68945 a 0.5,0.5 0 0 0 0.5918,0.39063 0.5,0.5 0 0 0 0.38867,-0.5918 c -0.34037,-1.65324 -0.66987,-3.22311 -0.50196,-6.4375 0.16792,-3.21439 0.84826,-8.071 1.64258,-11.60938 0.79433,-3.53837 1.72115,-5.83634 3.45117,-13.04882 1.73003,-7.21248 4.25955,-19.33144 5.7461,-31.29688 1.48655,-11.96544 1.92575,-23.74635 2.43555,-31.87891 0.50979,-8.13255 1.08927,-12.62212 2.0332,-17.34179 0.94393,-4.71968 2.25355,-9.66605 3.5293,-13.22852 1.27574,-3.56246 2.50878,-5.74075 4.04687,-7.92773 1.53809,-2.186979 3.37687,-4.366574 5.22461,-6.554686 a 0.5,0.5 0 0 0 -0.0586,-0.705079 z"
           id="path118" />
        <path
           style="color:#000000;fill:#c3ff27;stroke:#6aff01;stroke-width:1.32978;stroke-linecap:round;stroke-linejoin:round;stroke-dasharray:none;stroke-opacity:0.512953;paint-order:fill markers stroke"
           d="m 224.51172,218.17969 a 0.5,0.5 0 0 0 -0.55664,0.43554 c -0.82519,6.80781 -1.65001,13.61075 -2.64453,19.64649 -0.99453,6.03574 -2.15923,11.31215 -3.39063,15.65625 -1.2314,4.3441 -2.53236,7.76068 -3.68359,10.13086 -1.15123,2.37018 -2.15015,3.70085 -3.18164,5.07617 a 0.5,0.5 0 0 0 0.0996,0.69922 0.5,0.5 0 0 0 0.70117,-0.0996 c 1.03149,-1.37532 2.09443,-2.79483 3.28125,-5.23828 1.18682,-2.44345 2.49995,-5.9057 3.74414,-10.29492 1.24419,-4.38923 2.41632,-9.70046 3.41601,-15.76758 0.9997,-6.06713 1.82521,-12.8797 2.6504,-19.6875 a 0.5,0.5 0 0 0 -0.43555,-0.55664 z"
           id="path119" />
        <path
           style="color:#000000;fill:#c3ff27;stroke:#6aff01;stroke-width:1.32978;stroke-linecap:round;stroke-linejoin:round;stroke-dasharray:none;stroke-opacity:0.512953;paint-order:fill markers stroke"
           d="m 229.0332,241.2832 a 0.5,0.5 0 0 0 -0.36328,0.11328 0.5,0.5 0 0 0 -0.0625,0.70508 c 2.13174,2.54433 4.26333,5.08844 5.94922,7.08399 1.68589,1.99554 2.92552,3.44171 4.26758,4.99023 1.34205,1.54853 2.80087,3.21883 4.48828,4.66016 1.68741,1.44132 3.56292,2.62305 4.83594,3.29492 1.27301,0.67186 1.99028,0.8392 2.62695,0.94531 0.63667,0.10611 1.26392,0.17538 1.88281,0.24414 a 0.5,0.5 0 0 0 0.55274,-0.4414 0.5,0.5 0 0 0 -0.44141,-0.55274 c -0.61889,-0.0688 -1.22895,-0.13614 -1.83008,-0.23633 -0.60113,-0.10018 -1.12165,-0.20906 -2.32422,-0.84375 -1.20256,-0.63468 -3.03896,-1.79183 -4.65234,-3.16992 -1.61338,-1.37809 -3.04297,-3.00872 -4.38281,-4.55469 -1.33984,-1.54596 -2.57611,-2.98757 -4.25977,-4.98046 -1.68365,-1.9929 -3.81553,-4.53771 -5.94726,-7.08204 a 0.5,0.5 0 0 0 -0.33985,-0.17578 z"
           id="path120" />
        <path
           style="color:#000000;fill:#c3ff27;stroke:#6aff01;stroke-width:1.32978;stroke-linecap:round;stroke-linejoin:round;stroke-dasharray:none;stroke-opacity:0.512953;paint-order:fill markers stroke"
           d="m 144.05273,155.92773 a 0.5,0.5 0 0 0 -0.66992,0.22852 c -2.82023,5.73771 -5.64891,11.48543 -7.27148,16.40234 -1.62257,4.91692 -2.01357,8.9322 -3.0293,13.91407 -1.01572,4.98186 -2.66796,11.00478 -4.16016,15 -1.49219,3.99521 -2.81624,5.97534 -4.17773,8.01757 a 0.5,0.5 0 0 0 0.13867,0.69336 0.5,0.5 0 0 0 0.69336,-0.13867 c 1.36149,-2.04223 2.76064,-4.14613 4.2832,-8.22265 1.52257,-4.07653 3.17658,-10.1135 4.20313,-15.14844 1.02655,-5.03495 1.41334,-8.99463 3,-13.80274 1.58666,-4.8081 4.39852,-10.53572 7.21875,-16.27343 a 0.5,0.5 0 0 0 -0.22852,-0.66993 z"
           id="path121" />
        <path
           style="color:#000000;fill:#c3ff27;stroke:#6aff01;stroke-width:1.32978;stroke-linecap:round;stroke-linejoin:round;stroke-dasharray:none;stroke-opacity:0.512953;paint-order:fill markers stroke"
           d="m 122.16797,179.80664 c -5.15422,0.778 -10.31336,1.55595 -14.99414,2.43359 -4.68079,0.87765 -8.89651,1.85237 -12.277346,3.44336 -3.380833,1.59099 -5.859531,3.77709 -8.685547,6.40821 -2.826015,2.63112 -6.032367,5.73594 -8.761718,7.79492 -2.729352,2.05898 -5.011716,3.10408 -7.345703,4.17383 a 0.5,0.5 0 0 0 -0.246094,0.66406 0.5,0.5 0 0 0 0.662109,0.24609 c 2.333987,-1.06974 4.719294,-2.16434 7.533203,-4.28711 2.813911,-2.12276 6.025327,-5.24091 8.839844,-7.86132 2.814517,-2.62042 5.197516,-4.71335 8.429688,-6.23438 3.23217,-1.52103 7.379924,-2.49238 12.035154,-3.36523 4.65524,-0.87286 9.80477,-1.64974 14.95899,-2.42774 a 0.5,0.5 0 0 0 0.41992,-0.56836 0.5,0.5 0 0 0 -0.56836,-0.41992 z"
           id="path122" />
        <path
           style="color:#000000;fill:#c3ff27;stroke:#6aff01;stroke-width:1.32978;stroke-linecap:round;stroke-linejoin:round;stroke-dasharray:none;stroke-opacity:0.512953;paint-order:fill markers stroke"
           d="m 166.26367,130.56641 a 0.5,0.5 0 0 0 -0.6875,0.16992 c -2.82023,4.66797 -5.65256,9.34412 -7.0918,13.31445 -1.43923,3.97033 -1.43961,7.18031 -1.29296,10.25977 0.14664,3.07945 0.43906,6.09942 0.73046,9.69336 0.29141,3.59393 0.57792,7.75748 0.29102,11.24804 -0.2869,3.49057 -1.14864,6.3665 -1.63086,7.86133 -0.24111,0.74742 -0.38518,1.14073 -0.46875,1.33399 -0.0836,0.19325 -0.0412,0.11934 -0.0898,0.16796 a 0.5,0.5 0 0 0 0,0.70704 0.5,0.5 0 0 0 0.70703,0 c 0.0486,-0.0486 0.18986,-0.22006 0.30078,-0.47657 0.11092,-0.2565 0.25679,-0.66581 0.50195,-1.42578 0.49033,-1.51995 1.37917,-4.47723 1.67578,-8.08594 0.29662,-3.60871 10e-4,-7.80949 -0.29101,-11.41211 -0.29211,-3.60261 -0.5834,-6.61284 -0.72852,-9.66015 -0.14511,-3.04731 -0.14662,-6.06141 1.23438,-9.8711 1.381,-3.80968 4.18953,-8.46874 7.00976,-13.13671 a 0.5,0.5 0 0 0 -0.16992,-0.6875 z"
           id="path123" />
        <path
           style="color:#000000;fill:#c3ff27;stroke:#6aff01;stroke-width:1.32978;stroke-linecap:round;stroke-linejoin:round;stroke-dasharray:none;stroke-opacity:0.512953;paint-order:fill markers stroke"
           d="m 115.71875,188.29687 a 0.5,0.5 0 0 0 -0.65039,0.2793 c -2.33399,5.83497 -4.68201,11.69143 -5.66797,17.21289 -0.98596,5.52146 -0.59368,10.6158 -0.73828,15.14649 -0.1446,4.53068 -0.8198,8.58948 -1.35547,12.0957 -0.53567,3.50622 -0.91954,6.37378 -2.15625,9.41797 -1.23671,3.04419 -3.36051,6.3361 -5.499999,9.64258 a 0.5,0.5 0 0 0 0.148437,0.6914 0.5,0.5 0 0 0 0.691402,-0.14843 c 2.13949,-3.30648 4.29413,-6.62877 5.58594,-9.8086 1.29182,-3.17983 1.68467,-6.14874 2.21875,-9.64453 0.53408,-3.49579 1.22003,-7.60401 1.36719,-12.21484 0.14716,-4.61084 -0.23636,-9.63138 0.72266,-15.00196 0.95902,-5.37057 3.27734,-11.18261 5.61132,-17.01757 a 0.5,0.5 0 0 0 -0.27734,-0.6504 z"
           id="path124" />
        <path
           style="color:#000000;fill:#c3ff27;stroke:#6aff01;stroke-width:1.32978;stroke-linecap:round;stroke-linejoin:round;stroke-dasharray:none;stroke-opacity:0.512953;paint-order:fill markers stroke"
           d="m 63.501953,246.35742 a 0.5,0.5 0 0 0 -0.654297,0.26953 c -1.458744,3.50099 -2.92526,7.01043 -3.669922,9.93946 -0.744661,2.92902 -0.74414,5.22998 -0.74414,8.39062 v 10.06445 5.93164 a 0.5,0.5 0 0 0 0.5,0.5 0.5,0.5 0 0 0 0.5,-0.5 v -5.93164 -10.06445 c 0,-3.16064 -0.0012,-5.3358 0.71289,-8.14453 0.714079,-2.80873 2.166256,-6.2998 3.625,-9.80078 a 0.5,0.5 0 0 0 -0.269531,-0.6543 z"
           id="path125" />
        <path
           style="color:#000000;fill:#c3ff27;stroke:#6aff01;stroke-width:1.32978;stroke-linecap:round;stroke-linejoin:round;stroke-dasharray:none;stroke-opacity:0.512953;paint-order:fill markers stroke"
           d="m 52.064453,258.89062 c -5.543216,1.84774 -11.080675,3.69149 -15.365234,4.6543 -4.284562,0.96282 -7.34667,1.05664 -9.373047,1.05664 -2.026378,0 -2.965005,-0.0942 -3.9375,-0.1914 a 0.5,0.5 0 0 0 -0.546875,0.44726 0.5,0.5 0 0 0 0.449219,0.54688 c 0.972495,0.0973 1.977033,0.19726 4.035156,0.19726 2.058123,0 5.221096,-0.0999 9.591797,-1.08203 4.370702,-0.98217 9.919674,-2.8339 15.46289,-4.68164 a 0.5,0.5 0 0 0 0.316407,-0.63086 0.5,0.5 0 0 0 -0.632813,-0.31641 z"
           id="path126" />
        <path
           style="color:#000000;fill:#c3ff27;stroke:#6aff01;stroke-width:1.32978;stroke-linecap:round;stroke-linejoin:round;stroke-dasharray:none;stroke-opacity:0.512953;paint-order:fill markers stroke"
           d="m 120.67773,122.95898 c -2.92619,0.0488 -4.21206,0.14709 -4.93554,0.19532 -0.72349,0.0482 -0.90919,0.047 -2.12696,0.0957 -1.21776,0.0487 -3.45271,0.14689 -5.68945,0.24414 a 0.5,0.5 0 0 0 -0.47851,0.52149 0.5,0.5 0 0 0 0.52148,0.47656 c 2.23674,-0.0972 4.47399,-0.19365 5.6875,-0.24219 1.21351,-0.0485 1.41709,-0.0486 2.15234,-0.0977 0.73526,-0.049 1.97793,-0.14488 4.88672,-0.19336 2.90879,-0.0485 7.45839,-0.0462 11.63672,0.57813 4.17834,0.62434 8.0842,1.89255 12.91211,2.33594 4.82791,0.44339 10.48648,0.0491 16.12695,-0.33985 a 0.5,0.5 0 0 0 0.46485,-0.5332 0.5,0.5 0 0 0 -0.53321,-0.46289 c -5.64047,0.389 -11.26418,0.77172 -15.96679,0.33984 -4.70261,-0.43188 -8.57497,-1.69017 -12.85742,-2.33007 -4.28246,-0.6399 -8.8746,-0.63666 -11.80079,-0.5879 z"
           id="path127" />
        <path
           style="color:#000000;fill:#c3ff27;stroke:#6aff01;stroke-width:1.32978;stroke-linecap:round;stroke-linejoin:round;stroke-dasharray:none;stroke-opacity:0.512953;paint-order:fill markers stroke"
           d="m 104.49219,63.103516 a 0.5,0.5 0 0 0 -0.54492,0.451171 0.5,0.5 0 0 0 0.45117,0.544922 c 3.11198,0.291749 6.24383,0.586265 9.48828,0.53711 3.24445,-0.04915 6.57504,-0.437334 8.49023,-0.390625 0.9576,0.02335 1.53266,0.140597 2.25391,0.447265 0.72124,0.306669 1.5919,0.822459 3.00586,1.626953 2.82792,1.60899 7.78111,4.33885 10.57617,6.660157 2.79506,2.321305 3.48424,4.186828 3.96094,6.570312 0.4767,2.383484 0.67408,5.205334 1.16601,8.058594 0.49194,2.853262 1.27474,5.689534 2.05274,8.509766 a 0.5,0.5 0 0 0 0.61523,0.347656 0.5,0.5 0 0 0 0.34766,-0.615235 c -0.778,-2.820231 -1.55069,-5.624848 -2.03125,-8.412109 -0.48056,-2.787262 -0.67216,-5.604958 -1.16797,-8.083984 -0.49581,-2.479025 -1.36193,-4.698609 -4.30469,-7.142578 -2.94275,-2.443968 -7.90814,-5.161466 -10.7207,-6.761719 -1.40628,-0.800127 -2.28678,-1.327974 -3.10938,-1.677735 -0.82259,-0.34976 -1.58504,-0.500123 -2.62109,-0.52539 -2.07209,-0.05053 -5.35522,0.340583 -8.5293,0.388672 -3.17407,0.04809 -6.26692,-0.241455 -9.3789,-0.533203 z"
           id="path128" />
        <path
           style="color:#000000;fill:#c3ff27;stroke:#6aff01;stroke-width:1.32978;stroke-linecap:round;stroke-linejoin:round;stroke-dasharray:none;stroke-opacity:0.512953;paint-order:fill markers stroke"
           d="m 105.41016,43.853516 a 0.5,0.5 0 0 0 -0.58008,0.402343 0.5,0.5 0 0 0 0.40234,0.582032 c 1.06974,0.194499 2.11648,0.383522 4.68555,1.013671 2.56907,0.63015 6.66,1.702903 11.77148,2.919922 5.11148,1.21702 11.25319,2.582939 17.26758,3.316407 6.01439,0.733468 11.86816,0.830485 17.70313,0.927734 a 0.5,0.5 0 0 0 0.50781,-0.492188 0.5,0.5 0 0 0 -0.49024,-0.507812 c -5.83496,-0.09725 -11.65219,-0.196575 -17.59961,-0.921875 -5.94741,-0.7253 -12.05841,-2.080685 -17.1582,-3.294922 -5.09979,-1.214236 -9.17851,-2.283872 -11.76367,-2.917969 -2.58516,-0.634096 -3.67635,-0.832844 -4.74609,-1.027343 z"
           id="path129" />
      </g>
    </g>
  </g>
</svg>
